<?xml version="1.0" standalone="no"?>
<!DOCTYPE svg PUBLIC "-//W3C//DTD SVG 1.1//EN" "http://www.w3.org/Graphics/SVG/1.1/DTD/svg11.dtd" >
<svg>
<metadata>
Created by FontForge 20110222 at Tue Aug 13 00:53:23 2013
 By Orthosie Webhosting
modified (aar, 2006) | Copyright 2005 Monotype Imaging, Inc. All rights reserved. Neo Sans is designed by Sebastian Lester.
</metadata>
<defs>
<font id="NeoSansCyrLightItalic" horiz-adv-x="1188" >
  <font-face 
    font-family="NeoSansCyrLightItalic"
    font-weight="400"
    font-style="italic"
    font-stretch="normal"
    units-per-em="2048"
    panose-1="2 11 3 3 0 0 0 9 0 4"
    ascent="1638"
    descent="-410"
    x-height="1100"
    cap-height="1522"
    bbox="-156 -442 2204 1954"
    underline-thickness="0"
    underline-position="0"
    slope="-11"
    unicode-range="U+0020-2122"
  />
<missing-glyph horiz-adv-x="2048" 
d="M256 0v1536h1536v-1536h-1536zM384 128h1280v1280h-1280v-1280z" />
    <glyph glyph-name=".notdef" horiz-adv-x="2048" 
d="M256 0v1536h1536v-1536h-1536zM384 128h1280v1280h-1280v-1280z" />
    <glyph glyph-name=".null" horiz-adv-x="0" 
 />
    <glyph glyph-name="nonmarkingreturn" horiz-adv-x="440" 
 />
    <glyph glyph-name="space" unicode=" " horiz-adv-x="440" 
 />
    <glyph glyph-name="exclam" unicode="!" horiz-adv-x="418" 
d="M516 1489v-6l-192 -1090q-4 -15 -17 -27t-28 -12h-13q-33 0 -33 33v6l193 1090q3 15 16.5 27t28.5 12h12q33 0 33 -33zM285 184v-6l-27 -150q-3 -18 -16.5 -29t-28.5 -11h-12q-33 0 -33 32v7l26 149q3 17 18 29t30 12h12q31 0 31 -33z" />
    <glyph glyph-name="quotedbl" unicode="&#x22;" horiz-adv-x="664" 
d="M821 1505q0 -10 -6 -22l-162 -353q-9 -21 -19 -29.5t-26 -8.5h-30q-17 0 -17 14q0 5 1.5 11.5t4.5 12.5l148 353q9 21 20 30t27 9h39q20 0 20 -17zM565 1505q0 -10 -6 -22l-162 -353q-9 -21 -19 -29.5t-26 -8.5h-30q-17 0 -17 14q0 5 1.5 11.5t4.5 12.5l148 353
q9 21 20 30t27 9h39q20 0 20 -17z" />
    <glyph glyph-name="numbersign" unicode="#" horiz-adv-x="1303" 
d="M1380 1026v-8q-3 -16 -17 -25.5t-30 -9.5h-213l-123 -463h213q29 0 29 -26v-9l-2 -6q-3 -17 -17.5 -26t-29.5 -9h-215l-107 -405q-5 -16 -15.5 -27.5t-27.5 -11.5h-18q-14 0 -21.5 8t-7.5 21q0 2 1 4.5t1 5.5l107 405h-369l-106 -405q-5 -16 -16.5 -27.5t-26.5 -11.5h-21
q-12 0 -20.5 8t-8.5 21q0 3 1.5 5t1.5 5l106 405h-211q-14 0 -22.5 7.5t-8.5 19.5v8l2 6q4 17 19 26t31 9h213l122 463h-213q-14 0 -22 8t-8 21v6v8q3 16 18 25.5t31 9.5h213l113 422q5 15 17 27t28 12h20q12 0 19.5 -8.5t7.5 -20.5q0 -2 -1 -4.5t-1 -5.5l-113 -422h369
l112 422q5 15 16.5 27t28.5 12h19q14 0 20 -8t6 -19q0 -8 -2 -12l-112 -422h213q28 0 28 -29v-6zM664 983l-123 -463h368l123 463h-368z" />
    <glyph glyph-name="dollar" unicode="$" 
d="M1243 1481l-4 -27q-6 -29 -43 -29q-17 0 -51.5 3.5t-77 7t-88 7t-84.5 3.5q-82 0 -159.5 -12t-137.5 -45t-96.5 -91t-36.5 -149q0 -31 9.5 -58t33 -55.5t62 -60.5t96.5 -72l178 -123q74 -51 123 -98t77.5 -90t40 -83.5t11.5 -78.5q0 -99 -34.5 -176.5t-96 -132.5
t-145.5 -87.5t-183 -41.5l-37 -215q-3 -16 -13 -27.5t-26 -11.5h-20q-14 0 -20.5 9t-6.5 22v6v2l37 211h-4q-100 0 -177 8t-137 14q-12 2 -21 8t-9 19v4v2l4 27q3 15 15 20.5t28 5.5h6h2q39 -3 75.5 -7t73 -7t74.5 -5.5t80 -2.5q91 0 171 19.5t140 62t94.5 110t34.5 164.5
q0 34 -11.5 64t-37.5 61.5t-69 67t-107 79.5l-182 127q-62 43 -105 83t-69 78.5t-37.5 77t-11.5 77.5q0 103 37.5 173.5t100 114.5t144 66t170.5 29l33 178q3 15 12 27t25 12h20q14 0 21.5 -9t7.5 -22v-6v-2l-33 -174h4q82 0 159 -7t142 -14q29 -3 29 -24v-4v-2z" />
    <glyph glyph-name="percent" unicode="%" horiz-adv-x="1550" 
d="M653 1532q100 0 155.5 -59.5t55.5 -167.5q0 -69 -43 -282t-123.5 -277t-193.5 -64q-101 0 -157 60t-56 169q0 46 28 200.5t48 214.5t62 110t98 73t126 23zM518 762q172 0 219 241t47 297q0 154 -145 154q-170 0 -219 -235t-49 -304q0 -153 147 -153zM1516 1522
q14 0 14 -9t-17 -30l-1110 -1456q-30 -39 -49 -39h-63q-12 0 -12 8q0 9 16 31l1110 1456q31 39 49 39h62zM1317 836q100 0 155.5 -59.5t55.5 -168.5q0 -69 -43 -281.5t-123.5 -276.5t-194.5 -64q-101 0 -157 60t-56 169q0 45 28.5 200t48 214.5t62 109.5t98.5 73.5t126 23.5
zM1182 66q171 0 218.5 241t47.5 297q0 154 -145 154q-171 0 -220 -235t-49 -304q0 -153 148 -153z" />
    <glyph glyph-name="ampersand" unicode="&#x26;" horiz-adv-x="1305" 
d="M1028 287q141 173 186 426q7 37 16 49t27 12h25q26 0 26 -33l-5 -28q-53 -296 -226 -492l146 -194q4 -4 4 -9q0 -18 -21 -18h-55q-18 0 -22.5 4.5t-13.5 16.5l-99 131q-188 -164 -453 -164q-180 0 -292.5 77t-112.5 214q0 51 4 63l4 12q21 119 100.5 208t288.5 210
q-115 165 -146.5 245.5t-31.5 143.5q0 79 35 159t97.5 127t143 66t176.5 19q146 0 236 -66.5t90 -185.5q0 -99 -43 -185t-130 -153t-306 -188zM633 815q280 164 340.5 227.5t75 132t14.5 103.5q0 172 -248 172q-144 0 -222 -48.5t-101 -120.5t-23 -120q0 -61 30.5 -134
t133.5 -212zM971 215q-328 431 -371 494q-238 -132 -293 -225.5t-55 -200.5q0 -213 326 -213q228 0 393 145z" />
    <glyph glyph-name="quotesingle" unicode="'" horiz-adv-x="408" 
d="M565 1505q0 -10 -6 -22l-162 -353q-9 -21 -19 -29.5t-26 -8.5h-30q-17 0 -17 14q0 5 1.5 11.5t4.5 12.5l148 353q9 21 20 30t27 9h39q20 0 20 -17z" />
    <glyph glyph-name="parenleft" unicode="(" horiz-adv-x="543" 
d="M766 1511q0 -11 -10 -18q-56 -51 -106.5 -117t-95 -141.5t-81.5 -156.5t-66.5 -161.5t-50.5 -157.5t-32 -143l-19 -110q-11 -65 -16.5 -138.5t-5.5 -150.5q0 -81 7.5 -164t24.5 -160t44 -144.5t65 -119.5q3 -5 4.5 -7t1.5 -7t-3.5 -9.5t-12.5 -4.5h-52q-14 0 -20.5 3
t-11.5 11q-39 59 -65.5 130.5t-43 150t-24 160.5t-7.5 163q0 78 6 150t17 137l18 110q11 65 30.5 139.5t47.5 154t64 161t79.5 159t95 148.5t109.5 129q12 15 37 15h56q16 0 16 -11z" />
    <glyph glyph-name="parenright" unicode=")" horiz-adv-x="543" 
d="M551 911q0 -80 -6 -155t-17 -140l-18 -110q-11 -64 -30.5 -139t-47 -154.5t-63.5 -161t-79.5 -159t-94.5 -148.5t-109 -129q-11 -14 -37 -14h-61q-15 0 -15 8q0 5 4 10t9 10q56 51 106.5 117t94.5 141.5t81.5 157t67 162t50.5 157t32 142.5l18 110q11 69 18 143t7 152
q0 79 -7 161t-23 159t-42 144.5t-63 117.5q-3 5 -5 8t-2 8q0 13 17 13h47q25 0 33 -15q37 -58 63 -129t42 -148t23 -158.5t7 -160.5z" />
    <glyph glyph-name="asterisk" unicode="*" horiz-adv-x="854" 
d="M676 1214q275 89 285 89q18 0 26 -19l6 -16q2 -4 2 -11q0 -21 -26 -30l-269 -86l116 -161q53 -73 55.5 -78.5t2.5 -12.5q0 -14 -17 -26.5t-26 -12.5q-15 0 -32 23l-162 223l-115 -160q-53 -73 -61 -79.5t-17 -6.5q-6 0 -25.5 12t-19.5 25q0 7 3.5 14t55.5 79l117 161
q-266 86 -280 92t-14 24q0 7 7.5 26.5t26.5 19.5q10 0 285 -89v281q0 37 29 37h18q29 0 29 -37v-281z" />
    <glyph glyph-name="plus" unicode="+" 
d="M1194 791q0 -17 -12 -25t-29 -8h-373v-371q0 -17 -7.5 -29t-24.5 -12h-21q-17 0 -25 12t-8 29v371h-370q-17 0 -29 8t-12 25v20q0 17 12 25t29 8h370v373q0 17 8 28.5t25 11.5h21q17 0 24.5 -11.5t7.5 -28.5v-373h373q17 0 29 -8t12 -25v-20v0z" />
    <glyph glyph-name="comma" unicode="," horiz-adv-x="344" 
d="M281 217q20 0 20 -16q0 -8 -47 -94l-103 -187q-55 -102 -65.5 -113.5t-28.5 -11.5h-24q-17 0 -17 15q0 7 89.5 190.5t100 200t36.5 16.5h39z" />
    <glyph glyph-name="hyphen" unicode="-" horiz-adv-x="705" 
d="M700 582v-7q-7 -30 -18 -39.5t-31 -9.5h-413q-33 0 -33 27v6q7 31 18.5 42t30.5 11h414q32 0 32 -30z" />
    <glyph glyph-name="period" unicode="." horiz-adv-x="344" 
d="M248 184v-6l-27 -150q-3 -18 -16.5 -29t-28.5 -11h-12q-33 0 -33 32v7l26 149q3 17 18 29t30 12h12q31 0 31 -33z" />
    <glyph glyph-name="slash" unicode="/" horiz-adv-x="639" 
d="M879 1513q0 -5 -1.5 -10t-5.5 -10l-741 -1466q-8 -14 -15.5 -26.5t-23.5 -12.5h-45q-9 0 -13.5 5t-4.5 13q0 7 6 21l741 1466q8 14 16 26.5t23 12.5h43q21 0 21 -19z" />
    <glyph glyph-name="zero" unicode="0" 
d="M881 1532q186 0 286.5 -104t100.5 -300q0 -73 -24 -206q-68 -382 -72 -401q-28 -137 -77 -237.5t-119 -166t-162 -97.5t-206 -32q-183 0 -285 105.5t-102 301.5q0 72 26 218q67 374 72 398q30 139 82.5 238.5t124.5 162t160.5 91.5t194.5 29zM623 70q123 0 220.5 59.5
t160.5 174.5t89.5 275t55.5 311.5t29 237.5q0 322 -312 322q-127 0 -225.5 -63t-160 -179t-85.5 -264.5t-54 -305t-30 -239.5q0 -329 312 -329z" />
    <glyph glyph-name="one" unicode="1" 
d="M967 1489v-6l-256 -1444q-8 -39 -41 -39h-21q-28 0 -28 31v8l245 1384l-236 -100q-92 -39 -102 -39q-14 0 -14 16v7q7 35 9.5 40.5t7.5 10t34 17.5l206 90q65 28 130 57h33q33 0 33 -33z" />
    <glyph glyph-name="two" unicode="2" 
d="M275 84h709q38 0 38 -22q0 -31 -9.5 -46.5t-42.5 -15.5h-760q-34 0 -34 33q0 13 30.5 181.5t117 272.5t287.5 226q306 185 381 237t114.5 117.5t39.5 171.5q0 112 -77.5 159.5t-260.5 47.5q-99 0 -187 -12l-145 -20q-26 0 -26 22q0 42 17.5 53.5t120.5 27t236 15.5
q420 0 420 -293q0 -135 -62.5 -227.5t-291.5 -231.5q-291 -176 -366 -228.5t-127 -116t-72.5 -124.5t-49.5 -227z" />
    <glyph glyph-name="three" unicode="3" 
d="M980 795q78 -39 120 -113t42 -160q0 -253 -160 -393.5t-438 -140.5q-107 0 -201.5 14.5t-109 21t-14.5 23.5t5.5 32t12.5 18t32 3q182 -26 289 -26q228 0 357.5 117t129.5 327q0 104 -64 171t-181 67h-383q-34 0 -34 28q0 60 50 60h383q165 0 259.5 103.5t94.5 269.5
q0 135 -84 182t-286 47q-87 0 -176 -13l-134 -19q-25 0 -25 25q0 39 12.5 49.5t121 27t217.5 16.5q239 0 345 -76t106 -239q0 -300 -287 -422z" />
    <glyph glyph-name="four" unicode="4" 
d="M1202 494q0 -52 -49 -52h-205l-46 -258q-26 -147 -28.5 -156t-11.5 -18.5t-22 -9.5h-25q-29 0 -29 31v8l72 403h-563q-54 0 -85.5 26t-31.5 67q0 51 45 104l721 842q42 51 105 51q75 0 75 -74q0 -13 -2 -24l-159 -906h204q35 0 35 -30v-4zM1030 1421v6q0 7 -8 7t-18 -13
l-705 -821q-31 -31 -31 -53q0 -19 37 -19h567z" />
    <glyph glyph-name="five" unicode="5" 
d="M1260 1495v-6q-7 -36 -18 -43.5t-32 -7.5h-620l-133 -545h159q268 0 393.5 -76.5t125.5 -257.5q0 -263 -163.5 -417t-449.5 -154q-113 0 -212.5 17t-114.5 27t-15 25v6q6 33 13.5 41.5t23.5 8.5q10 0 16 -2q143 -37 304 -37q237 0 372 131t135 354q0 135 -100.5 192.5
t-341.5 57.5h-217q-35 0 -35 33q0 4 19 80l110 441q32 130 36.5 137.5t17 14.5t24.5 7h668q35 0 35 -27z" />
    <glyph glyph-name="six" unicode="6" 
d="M395 879q197 47 398 47q180 0 281.5 -82.5t101.5 -237.5q0 -276 -151.5 -447t-416.5 -171q-187 0 -285 93t-98 269q0 74 32 258l64 363q32 179 80.5 278.5t121 161.5t171 91.5t228.5 29.5q125 0 225.5 -19.5t116.5 -27t16 -23.5q0 -56 -36 -56q-10 0 -23 3
q-171 37 -314 37q-117 0 -204 -29.5t-149.5 -95t-93 -153t-65.5 -289.5zM379 793q-52 -300 -58 -353t-6 -90q0 -146 71 -213t228 -67q222 0 345.5 142.5t123.5 387.5q0 124 -70 183t-235 59q-188 0 -399 -49z" />
    <glyph glyph-name="seven" unicode="7" 
d="M1221 1522q106 0 106 -80q0 -43 -22 -78l-873 -1344q-13 -20 -41 -20h-31q-26 0 -26 23q0 14 12 32l885 1350q6 9 6 16q0 13 -16 13h-766q-35 0 -35 27q0 61 51 61h750z" />
    <glyph glyph-name="eight" unicode="8" 
d="M487 799q-76 34 -118.5 109.5t-42.5 160.5q0 224 148 343.5t409 119.5q203 0 311.5 -84t108.5 -244q0 -141 -80 -257t-203 -152q73 -44 115.5 -122.5t42.5 -160.5q0 -162 -72 -280t-204 -181t-292 -63q-417 0 -417 372q0 145 79.5 264.5t214.5 174.5zM846 844
q176 0 268 98t92 264q0 240 -340 240q-444 0 -444 -379q0 -92 60 -157.5t196 -65.5h168zM829 756h-167q-157 0 -262 -112.5t-105 -283.5q0 -146 80 -216t250 -70q215 0 335.5 116.5t120.5 319.5q0 70 -28.5 127t-85 88t-138.5 31z" />
    <glyph glyph-name="nine" unicode="9" 
d="M1093 641q-197 -47 -398 -47q-180 0 -281.5 82t-101.5 237q0 277 151 448t417 171q187 0 285 -93t98 -270q0 -74 -32 -257l-64 -363q-33 -180 -81 -279t-120.5 -161.5t-171 -91.5t-228.5 -29q-120 0 -221.5 18.5t-118.5 27.5t-17 29q0 50 37 50q9 0 21 -2
q162 -37 314 -37q116 0 203.5 29t150 94.5t93 153t65.5 290.5zM1109 727q52 300 57.5 352.5t5.5 89.5q0 148 -70.5 214.5t-228.5 66.5q-221 0 -345 -142.5t-124 -387.5q0 -125 70.5 -183.5t235.5 -58.5q191 0 399 49z" />
    <glyph glyph-name="colon" unicode=":" horiz-adv-x="365" 
d="M416 1077v-6l-27 -150q-3 -18 -16.5 -29t-28.5 -11h-12q-33 0 -33 32v7l26 149q3 17 18 29t30 12h12q31 0 31 -33zM258 184v-6l-26 -150q-3 -18 -16.5 -29t-29.5 -11h-12q-33 0 -33 32v7l26 149q4 17 18.5 29t29.5 12h12q31 0 31 -33z" />
    <glyph glyph-name="semicolon" unicode=";" horiz-adv-x="365" 
d="M416 1077v-6l-27 -150q-3 -18 -16.5 -29t-28.5 -11h-12q-33 0 -33 32v7l26 149q3 17 18 29t30 12h12q31 0 31 -33zM256 217q20 0 20 -16q0 -8 -46 -94l-103 -187q-56 -102 -66 -113.5t-28 -11.5h-25q-16 0 -16 15q0 7 89.5 190.5t99.5 200t36 16.5h39z" />
    <glyph glyph-name="less" unicode="&#x3c;" 
d="M1030 1276q0 -8 -4 -16.5t-12 -14.5l-543 -444l543 -445q16 -13 16 -30q0 -13 -10 -23l-14 -14q-9 -8 -21 -8q-8 0 -16.5 4t-16.5 10l-544 446q-31 25 -31 60t31 59l544 447q8 6 16.5 10t16.5 4q12 0 21 -8l14 -15q10 -10 10 -22z" />
    <glyph glyph-name="equal" unicode="=" 
d="M1165 995q0 -17 -12 -24.5t-29 -7.5h-747q-17 0 -29 7.5t-12 24.5v21q0 17 12 25t29 8h747q17 0 29 -8t12 -25v-21zM1165 586q0 -17 -12 -25t-29 -8h-747q-17 0 -29 8t-12 25v20q0 17 12 25t29 8h747q17 0 29 -8t12 -25v-20z" />
    <glyph glyph-name="greater" unicode="&#x3e;" 
d="M1130 801q0 -35 -30 -60l-545 -446q-8 -6 -16.5 -10t-16.5 -4q-12 0 -20 8l-15 14q-10 10 -10 23q0 8 4.5 16t12.5 14l542 445l-542 444q-8 6 -12.5 14.5t-4.5 16.5q0 12 10 22l15 15q8 8 20 8q8 0 16.5 -4t16.5 -10l545 -447q30 -24 30 -59z" />
    <glyph glyph-name="question" unicode="?" horiz-adv-x="868" 
d="M330 1462q4 33 15 43.5t91 18.5t185 8q164 0 254 -65.5t90 -186.5q0 -126 -55.5 -210t-241.5 -239q-158 -131 -192.5 -176.5t-49.5 -138.5l-20 -120q-3 -19 -16.5 -30.5t-29.5 -11.5h-12q-33 0 -33 33v6q30 176 46 224t57.5 97.5t126.5 121.5q217 184 269 256t52 186
q0 93 -62.5 133.5t-197.5 40.5q-48 0 -121 -7q-75 -7 -125 -7h-4q-26 0 -26 20v4zM365 184v-4l-26 -149q-3 -15 -10 -24.5t-16.5 -14t-19.5 -4.5h-12q-33 0 -33 32v7l26 149q3 17 18 29t30 12h12q31 0 31 -33z" />
    <glyph glyph-name="at" unicode="@" horiz-adv-x="1552" 
d="M1534 801q0 -175 -42 -301.5t-135 -208t-241.5 -120t-361.5 -38.5q-55 0 -104.5 9.5t-87.5 34.5t-60.5 67.5t-22.5 107.5q0 19 2.5 43.5t5.5 42.5l50 242q17 84 46.5 141.5t72.5 93t101 51t132 15.5q63 0 122.5 -6.5t127.5 -20.5q12 -3 21 -11t9 -25q0 -4 -1 -8t-1 -7
l-133 -674q51 12 101.5 26.5t96.5 39.5t85.5 63.5t68.5 98t45.5 144t16.5 200.5q0 111 -38 194.5t-103 139.5t-152 84t-184 28q-147 0 -261.5 -40t-198 -111.5t-137 -170.5t-77.5 -218l-59 -291q-7 -29 -9 -61t-2 -64q0 -108 34.5 -186.5t95 -129.5t144.5 -75.5t183 -24.5
q33 0 69 1t72 2.5t70 4t63 4.5h7q15 0 22.5 -6.5t7.5 -17.5q0 -23 -13 -34.5t-36 -14.5q-24 -3 -56 -6.5t-67 -5.5t-71.5 -3.5t-67.5 -1.5q-117 0 -216.5 32t-172.5 94.5t-114.5 154.5t-41.5 213q0 29 2 63t9 62l59 293q29 144 93 258.5t160 194.5t223.5 122.5t285.5 42.5
q115 0 217.5 -36t179 -103.5t121.5 -165.5t45 -221zM1075 885q-16 3 -38 6t-47 6t-51 4.5t-50 1.5q-65 0 -110 -11.5t-76.5 -37.5t-50.5 -69t-31 -107l-48 -240q-3 -18 -5.5 -42.5t-2.5 -43.5q0 -44 13.5 -71t38.5 -43t60 -21.5t77 -5.5q24 0 51.5 0.5t54 1.5t48.5 2.5
t36 3.5z" />
    <glyph glyph-name="A" unicode="A" horiz-adv-x="1268" 
d="M1194 37q0 -43 -39 -43h-20q-9 0 -14.5 4t-8.5 10t-15 97l-63 470h-590l-167 -348q-99 -207 -101.5 -212t-14.5 -13t-22 -8h-30q-27 0 -27 24q0 10 8 27l664 1387q48 100 151 100q100 0 113 -98l176 -1389v-8zM1026 666l-92 741q-2 16 -13 28.5t-26 12.5q-37 0 -55 -39
l-357 -743h543z" />
    <glyph glyph-name="B" unicode="B" 
d="M971 795q94 -36 144 -109t50 -170q0 -125 -61.5 -258t-205 -202.5t-390.5 -69.5q-119 0 -217.5 8t-109.5 14t-11 21l254 1452q3 14 16 25t29.5 13.5t123.5 7.5t193 5q498 0 498 -293q0 -139 -69.5 -263t-243.5 -181zM403 844h371q163 0 258.5 59t128.5 156t33 168
q0 77 -40.5 126.5t-128.5 74t-259 24.5q-95 0 -258 -8zM268 80q168 -12 254 -12q232 0 357.5 73.5t161.5 188t36 190.5q0 236 -319 236h-371z" />
    <glyph glyph-name="C" unicode="C" horiz-adv-x="1100" 
d="M1278 1481v-4q-6 -36 -12 -43t-23 -7h-12q-161 19 -352 19q-109 0 -198.5 -39.5t-159.5 -127.5t-103 -194.5t-73 -336t-40 -316.5q0 -358 332 -358q88 0 183 6l175 12h13q22 0 22 -16v-8q-6 -35 -15 -44t-22.5 -13t-128 -13.5t-241.5 -9.5q-191 0 -299.5 114.5
t-108.5 331.5q0 85 39.5 311t68 328t88.5 199t136 153.5t163 81.5t185 25t231 -9t142.5 -20.5t9.5 -21.5z" />
    <glyph glyph-name="D" unicode="D" horiz-adv-x="1255" 
d="M424 1477q4 16 21.5 30t131.5 19.5t228 5.5q243 0 371.5 -118t128.5 -347q0 -88 -19 -191q-58 -331 -82 -406q-54 -172 -149.5 -278.5t-225.5 -155t-297 -48.5q-134 0 -236.5 6t-113 17.5t-10.5 25.5v6zM268 76q112 -8 279 -8q230 0 389.5 131t220 451.5t60.5 416.5
q0 211 -112.5 298t-313.5 87q-104 0 -283 -12z" />
    <glyph glyph-name="E" unicode="E" horiz-adv-x="1092" 
d="M1241 1493v-6q-4 -30 -15.5 -39.5t-31.5 -9.5h-528q-82 0 -123 -25t-58 -102l-84 -469h686q35 0 35 -27v-6q-6 -34 -17.5 -44.5t-31.5 -10.5h-686l-70 -400q-26 -148 -26 -174q0 -57 32.5 -76.5t102.5 -19.5h528q33 0 33 -27v-6q-4 -30 -15.5 -40.5t-31.5 -10.5h-528
q-213 0 -213 174q0 20 6 55l186 1063q21 122 85.5 176t203.5 54h528q33 0 33 -29z" />
    <glyph glyph-name="F" unicode="F" horiz-adv-x="1061" 
d="M1241 1491v-6q-4 -30 -15.5 -38.5t-31.5 -8.5h-528q-79 0 -121 -25t-60 -102l-84 -469h686q35 0 35 -31v-6q-6 -33 -17 -42t-32 -9h-686l-127 -715q-8 -39 -41 -39h-20q-29 0 -29 31v8l221 1253q22 124 87.5 177t201.5 53h528q33 0 33 -31z" />
    <glyph glyph-name="G" unicode="G" horiz-adv-x="1204" 
d="M1300 1485v-6q-3 -35 -10.5 -43.5t-27.5 -8.5h-13q-205 21 -356 21q-85 0 -164.5 -29.5t-149.5 -92.5t-125.5 -170t-83.5 -262l-46 -262q-19 -106 -19 -194q0 -364 344 -364q168 0 316 18l72 411q43 242 45 250.5t13 18.5t25 10h21q28 0 28 -30v-9l-77 -441
q-44 -250 -45.5 -256t-9 -14.5t-16.5 -12.5t-126.5 -17.5t-259.5 -13.5q-199 0 -309.5 118.5t-110.5 337.5q0 85 25 223q54 307 78 383q43 140 109.5 235t146 149t163 76t170.5 22q159 0 265 -10t117 -15.5t11 -21.5z" />
    <glyph glyph-name="H" unicode="H" horiz-adv-x="1325" 
d="M1423 1491v-8l-256 -1444q-7 -39 -41 -39h-18q-29 0 -29 31v8l129 733h-819l-129 -733q-8 -39 -41 -39h-20q-29 0 -29 31v8l256 1444q8 39 41 39h20q29 0 29 -31v-8l-110 -627h819l69 395q41 232 43 241t13 19.5t26 10.5h19q28 0 28 -31z" />
    <glyph glyph-name="I" unicode="I" horiz-adv-x="459" 
d="M537 1491v-8l-256 -1444q-8 -39 -41 -39h-21q-29 0 -29 31v8l256 1444q8 39 41 39h21q29 0 29 -31z" />
    <glyph glyph-name="J" unicode="J" horiz-adv-x="459" 
d="M537 1491v-8l-285 -1606q-28 -161 -103.5 -218.5t-238.5 -57.5h-29q-37 0 -37 22v6q7 35 17.5 43.5t32.5 8.5h28q128 0 173 37t67 159l284 1606q8 39 41 39h21q29 0 29 -31z" />
    <glyph glyph-name="K" unicode="K" horiz-adv-x="1114" 
d="M399 827l818 680q27 23 51 23q15 0 26 -11t11 -24q0 -23 -27 -45l-803 -666l574 -723q12 -15 12 -30q0 -35 -41 -35q-34 0 -47 16l-586 742l-127 -715q-8 -39 -41 -39h-20q-29 0 -29 31v8l256 1444q3 15 16.5 27t28.5 12h12q33 0 33 -33v-6z" />
    <glyph glyph-name="L" unicode="L" horiz-adv-x="989" 
d="M926 53q0 -53 -47 -53h-467q-213 0 -213 168q0 27 6 61l221 1254q8 39 41 39h20q29 0 29 -31v-8l-221 -1254q-6 -33 -6 -57q0 -53 31 -70.5t106 -17.5h467q33 0 33 -29v-2z" />
    <glyph glyph-name="M" unicode="M" horiz-adv-x="1495" 
d="M1389 1466q23 37 48 51.5t70 14.5q33 0 55.5 -22.5t22.5 -57.5q0 -7 -2 -18l-246 -1395q-7 -39 -41 -39h-22q-29 0 -29 31v8l246 1395v2q0 10 -12 10q-7 0 -19 -19l-497 -763q-45 -66 -109 -66t-84 66l-227 763q-5 19 -21 19t-18 -12l-246 -1395q-8 -39 -41 -39h-18
q-29 0 -29 31v8l246 1395q18 98 112 98q71 0 90 -64l228 -749q9 -27 22 -27q14 0 31 27z" />
    <glyph glyph-name="N" unicode="N" horiz-adv-x="1333" 
d="M1339 1483q7 39 43 39h17q19 0 26 -8.5t7 -30.5l-246 -1393q-9 -47 -39 -74.5t-70 -27.5q-41 0 -61.5 14.5t-32.5 50.5l-446 1379q-4 14 -17 14q-12 0 -14 -14l-246 -1393q-8 -39 -49 -39h-10q-20 0 -25.5 9t-5.5 30l246 1393q19 100 108 100q76 0 97 -64l446 -1380
q4 -14 12 -14q12 0 15 16z" />
    <glyph glyph-name="O" unicode="O" horiz-adv-x="1294" 
d="M918 1532q203 0 315.5 -118t112.5 -339q0 -128 -68.5 -462.5t-231.5 -479.5t-401 -145q-205 0 -317.5 116.5t-112.5 337.5q0 87 38.5 304t67.5 319t89.5 199t138.5 156t170 85.5t199 26.5zM659 74q195 0 333.5 126t200.5 440.5t62 438.5q0 367 -354 367
q-113 0 -206 -38.5t-167 -126.5t-109 -197.5t-74.5 -332t-39.5 -313.5q0 -364 354 -364z" />
    <glyph glyph-name="P" unicode="P" horiz-adv-x="1106" 
d="M369 651l-69 -386q-40 -227 -42 -235.5t-13.5 -19t-25.5 -10.5h-20q-29 0 -29 31v8l256 1444q3 11 12 21.5t18.5 14t114.5 8.5t174 5q242 0 368 -84t126 -246q0 -77 -33 -197.5t-110 -201t-199.5 -120.5t-300.5 -40q-109 0 -227 8zM383 731q129 -8 221 -8q228 0 349 73.5
t158.5 197t37.5 208.5q0 132 -96.5 191t-321.5 59q-133 0 -223 -6z" />
    <glyph glyph-name="Q" unicode="Q" horiz-adv-x="1294" 
d="M598 -10q-187 14 -285 130t-98 322q0 87 38.5 304t67.5 319t89.5 199t138.5 156t170 85.5t199 26.5q203 0 315.5 -118t112.5 -339q0 -84 -40.5 -312t-80 -346.5t-121 -219t-186.5 -150.5t-230 -57q-35 -194 -35 -226q0 -51 32 -67t138 -16h43q37 0 37 -27v-6
q-8 -30 -19 -38.5t-30 -8.5h-43q-156 0 -201 39.5t-45 121.5q0 47 33 228zM659 74q195 0 333.5 126t200.5 440.5t62 438.5q0 367 -354 367q-113 0 -206 -38.5t-167 -126.5t-109 -197.5t-74.5 -332t-39.5 -313.5q0 -364 354 -364z" />
    <glyph glyph-name="R" unicode="R" horiz-adv-x="1225" 
d="M375 688l-72 -409q-43 -241 -45 -249t-13.5 -19t-25.5 -11h-20q-29 0 -29 33v6l256 1446q5 22 26 34.5t336 12.5q494 0 494 -318q0 -91 -40.5 -214t-138 -202.5t-272.5 -101.5l202 -425q102 -216 104 -222t2 -14q0 -35 -35 -35h-21q-22 0 -30 18l-320 668h-94
q-74 0 -264 2zM391 772h271q250 0 356 67.5t140 180.5t34 188q0 127 -95.5 182.5t-324.5 55.5q-176 0 -264 -8z" />
    <glyph glyph-name="S" unicode="S" horiz-adv-x="1085" 
d="M1192 1483q0 -56 -41 -56h-6q-227 19 -301 19q-229 0 -330.5 -71t-101.5 -212q0 -78 54 -143t169 -141q195 -132 266.5 -193t108.5 -126t37 -134q0 -139 -67 -237.5t-193 -149.5t-291 -51q-106 0 -214 11.5t-119 17.5t-11 22v4q5 37 12 44t22 7h11q229 -22 313 -22
q211 0 325.5 87.5t114.5 256.5q0 82 -56.5 148t-207.5 169q-168 115 -228 165.5t-99.5 114.5t-39.5 140q0 379 543 379q74 0 192.5 -10.5t128 -16t9.5 -18.5v-4z" />
    <glyph glyph-name="T" unicode="T" horiz-adv-x="1169" 
d="M1370 1493v-8q-7 -32 -17 -39.5t-30 -7.5h-438l-248 -1399q-8 -39 -41 -39h-21q-28 0 -28 31v8l248 1399h-441q-35 0 -35 28v7q7 31 18 40t32 9h968q33 0 33 -29z" />
    <glyph glyph-name="U" unicode="U" horiz-adv-x="1296" 
d="M1395 1489v-6l-166 -942q-50 -286 -192 -419.5t-390 -133.5q-199 0 -301 100t-102 293q0 67 16 160l166 942q8 39 41 39h20q29 0 29 -33v-6l-166 -942q-16 -95 -16 -162q0 -155 78.5 -231t249.5 -76q394 0 477 469l166 942q7 39 41 39h20q29 0 29 -33z" />
    <glyph glyph-name="V" unicode="V" horiz-adv-x="1290" 
d="M1434 1522q30 0 30 -29q0 -10 -6 -23l-663 -1382q-48 -100 -148 -100q-106 0 -119 100l-176 1382v11q0 41 33 41h25q25 0 28 -29l174 -1378q6 -43 41 -43q39 0 60 43l659 1378q14 29 37 29h25z" />
    <glyph glyph-name="W" unicode="W" horiz-adv-x="1614" 
d="M1753 1522q29 0 29 -29q0 -7 -4 -18l-498 -1391q-35 -96 -111 -96q-32 0 -53 17.5t-29 74.5l-110 792q-3 25 -12 25t-21 -25l-389 -792q-46 -92 -115 -92q-81 0 -82 96l-6 1391q0 19 12 33t29 14h17q30 0 30 -33v-1387q0 -30 13 -30q5 0 20 30l395 797q22 44 46 62t65 18
q62 0 74 -80l116 -797q3 -30 13 -30q9 0 20 30l492 1387q12 33 43 33h16z" />
    <glyph glyph-name="X" unicode="X" horiz-adv-x="1233" 
d="M764 852l545 651q15 19 37 19h18q27 0 27 -25q0 -20 -15 -37l-575 -686l346 -715q10 -20 10 -34q0 -25 -27 -25h-20q-20 0 -29 18l-333 689l-578 -689q-16 -18 -37 -18h-20q-27 0 -27 23q0 17 16 36l607 725l-328 676q-12 25 -12 39q0 23 28 23h25q18 0 27 -19z" />
    <glyph glyph-name="Y" unicode="Y" horiz-adv-x="1126" 
d="M629 633q-46 18 -74 119l-199 714q-2 7 -2 19q0 37 41 37h17q22 0 28 -25l195 -717q11 -40 19.5 -55.5t29.5 -15.5q19 0 32.5 13t41.5 58l448 717q17 25 37 25h25q30 0 30 -23q0 -13 -12 -33l-448 -714q-61 -98 -119 -119l-66 -375q-39 -220 -41 -228.5t-13 -19
t-26 -10.5h-20q-29 0 -29 31v8z" />
    <glyph glyph-name="Z" unicode="Z" horiz-adv-x="1219" 
d="M1180 1522q49 0 77.5 -25t28.5 -63q0 -36 -26 -70l-992 -1251q-8 -9 -8 -17q0 -12 23 -12h784q39 0 39 -29v-4q-7 -33 -19.5 -42t-33.5 -9h-789q-44 0 -70 26.5t-26 65.5q0 37 22 66l996 1253q8 8 8 16q0 11 -14 11h-742q-15 0 -27 9t-12 21v5q7 32 20 40.5t34 8.5h727z
" />
    <glyph glyph-name="bracketleft" unicode="[" horiz-adv-x="610" 
d="M831 1487l-2 -17q-2 -15 -15 -23.5t-30 -8.5h-256l-309 -1753h256q16 0 24.5 -8.5t8.5 -20.5v-6l-4 -17q-3 -15 -14.5 -23.5t-28.5 -8.5h-311q-14 0 -21.5 9t-7.5 21v9l325 1843q4 15 15 27t26 12h312q15 0 23.5 -8.5t8.5 -20.5v-6z" />
    <glyph glyph-name="backslash" unicode="\" horiz-adv-x="666" 
d="M623 18q0 -12 -5.5 -21t-19.5 -9h-37q-15 0 -19.5 12.5t-6.5 26.5l-222 1466v6q0 14 6.5 23.5t20.5 9.5h35q15 0 19.5 -12.5t6.5 -26.5l222 -1466v-9v0z" />
    <glyph glyph-name="bracketright" unicode="]" horiz-adv-x="610" 
d="M688 1483l-326 -1843q-3 -16 -14 -27.5t-26 -11.5h-312q-15 0 -25 7t-10 19v6l5 17q3 15 15.5 25t29.5 10h256l309 1753h-256q-33 0 -33 26v6l2 17q2 15 15 25t30 10h311q14 0 21.5 -9.5t7.5 -21.5v-8z" />
    <glyph glyph-name="asciicircum" unicode="^" 
d="M1133 1165q0 -8 -5 -13t-16 -5h-37q-18 0 -28 10.5t-25 30.5l-240 285l-239 -285q-17 -20 -27 -30.5t-27 -10.5h-36q-11 0 -17 5t-6 13q0 10 10 23l240 307q15 20 26 28.5t29 8.5h94q17 0 28 -8.5t28 -28.5l239 -307q9 -12 9 -23z" />
    <glyph glyph-name="underscore" unicode="_" horiz-adv-x="952" 
d="M987 -147l-2 -21q-2 -17 -16 -25t-31 -8h-993q-16 0 -25.5 6.5t-9.5 20.5v6l2 21q2 17 16 24.5t31 7.5h993q16 0 25.5 -6t9.5 -20v-6z" />
    <glyph glyph-name="grave" unicode="`" horiz-adv-x="676" 
d="M655 1284q0 -8 -4.5 -13t-15.5 -5h-37q-15 0 -21.5 8.5t-17.5 25.5l-172 263q-6 9 -6 14q0 16 25 16h45q15 0 23.5 -6.5t19.5 -23.5l157 -263q3 -5 3.5 -8t0.5 -8z" />
    <glyph glyph-name="a" unicode="a" horiz-adv-x="1032" 
d="M819 109q-221 -121 -352 -121q-137 0 -217 77.5t-80 217.5q0 66 54 342t170 380.5t317 104.5q105 0 221 -18.5t128.5 -25t12.5 -19.5q0 -3 -2 -15l-174 -991q-7 -41 -45 -41h-16q-31 0 -31 33zM975 1004q-157 26 -279 26q-146 0 -242 -85.5t-145 -343t-49 -318.5
q0 -215 227 -215q62 0 130.5 23.5t216.5 103.5z" />
    <glyph glyph-name="b" unicode="b" horiz-adv-x="1032" 
d="M426 1083q135 27 283 27q331 0 331 -342q0 -99 -37 -294.5t-104.5 -296.5t-161 -145t-213.5 -44q-106 0 -226.5 18t-132 25t-11.5 18q0 5 2 17l250 1417q7 39 40 39h21q29 0 29 -31v-8zM250 94q157 -26 278 -26q154 0 247 86t135 304t42 314q0 134 -61.5 196t-194.5 62
q-129 0 -286 -31z" />
    <glyph glyph-name="c" unicode="c" horiz-adv-x="895" 
d="M991 1065v-10q-4 -28 -14 -35.5t-29 -7.5h-8q-141 18 -240 18q-151 0 -250.5 -98.5t-137.5 -307t-38 -290.5q0 -266 256 -266q51 0 115 5l131 13h8q31 0 31 -23v-6q-4 -32 -15.5 -40.5t-109 -18.5t-174.5 -10q-163 0 -246.5 90t-83.5 262q0 108 45 328.5t168 331
t316 110.5q70 0 164 -9.5t103 -15t9 -20.5z" />
    <glyph glyph-name="d" unicode="d" horiz-adv-x="1032" 
d="M1151 1485l-250 -1419q-4 -24 -19.5 -32.5t-140.5 -27t-227 -18.5q-159 0 -243.5 93t-84.5 265q0 107 47 329t165.5 328.5t312.5 106.5q142 0 278 -31l46 259q27 150 29 159t12.5 17t25.5 8h20q29 0 29 -31v-6zM975 1004q-130 26 -279 26q-160 0 -254.5 -101t-131 -312
t-36.5 -283q0 -266 252 -266q150 0 289 26z" />
    <glyph glyph-name="e" unicode="e" horiz-adv-x="1047" 
d="M295 528q-19 -129 -19 -176q0 -146 70.5 -214t237.5 -68q144 0 311 32q6 2 18 2q25 0 25 -16q0 -9 -6.5 -29.5t-14.5 -26t-60 -15.5t-135.5 -19.5t-150.5 -9.5q-185 0 -284 91.5t-99 268.5q0 128 47.5 338t172 317t313.5 107q162 0 249 -91.5t87 -256.5q0 -61 -10 -123
t-14 -76.5t-18.5 -24.5t-29.5 -10h-690zM952 610q17 99 17 156q0 264 -260 264q-317 0 -398 -420h641z" />
    <glyph glyph-name="f" unicode="f" horiz-adv-x="772" 
d="M593 1016l-195 -1104q-21 -125 -83.5 -183.5t-190.5 -58.5q-86 0 -112 7.5t-26 25.5q0 31 10 39t40 8h102q90 0 123 39.5t47 122.5l195 1104h-203q-35 0 -35 24q0 6 8.5 33t42.5 27h203l35 201q13 76 45.5 129t86.5 77.5t140 24.5q87 0 112.5 -7.5t25.5 -25.5
q0 -31 -10 -39t-40 -8h-102q-66 0 -97 -17.5t-47 -50.5t-26 -95l-33 -189h244q34 0 34 -23q0 -61 -50 -61h-244z" />
    <glyph glyph-name="g" unicode="g" horiz-adv-x="1032" 
d="M805 18q-113 -30 -270 -30q-353 0 -353 340q0 72 36 275t100.5 310.5t164.5 152t248 44.5q106 0 212 -17.5t118 -24t12 -19.5q0 -3 -2 -15l-182 -1036q-38 -212 -128 -304.5t-312 -92.5q-116 0 -214 12t-114.5 20t-16.5 23l2 10q8 39 37 39h9q147 -24 297 -24
q193 0 256.5 73t99.5 264zM975 1001q-164 29 -256 29q-182 0 -272 -87t-133.5 -310.5t-43.5 -315.5q0 -149 70.5 -199t208.5 -50q121 0 266 34z" />
    <glyph glyph-name="h" unicode="h" horiz-adv-x="1032" 
d="M424 1075q146 35 283 35q162 0 246.5 -75.5t84.5 -217.5q0 -46 -11 -105l-119 -672q-3 -17 -14.5 -28.5t-27.5 -11.5h-20q-27 0 -27 31v8l86 481q39 217 42 244.5t3 52.5q0 110 -63 161.5t-195 51.5q-136 0 -282 -39l-170 -952q-8 -39 -41 -39h-21q-28 0 -28 31v8
l256 1444q7 39 40 39h21q29 0 29 -31v-8z" />
    <glyph glyph-name="i" unicode="i" horiz-adv-x="418" 
d="M444 1303h-12q-34 0 -34 26q0 6 15.5 87t18.5 92t14 17.5t27 6.5h12q34 0 34 -29q0 -5 -15 -85t-18.5 -90.5t-14.5 -17.5t-27 -7zM391 1100h23q18 0 22 -7.5t4 -31.5l-180 -1022q-7 -39 -45 -39h-12q-20 0 -26.5 8.5t-6.5 30.5l180 1022q8 39 41 39z" />
    <glyph glyph-name="j" unicode="j" horiz-adv-x="418" 
d="M518 1501v-8q-30 -160 -37.5 -175t-36.5 -15h-12q-33 0 -33 28v10q31 162 38 176.5t36 14.5h12q33 0 33 -31zM440 1071v-10l-217 -1237q-23 -127 -76 -175t-174 -48q-56 0 -85 5.5t-29 24.5v4q3 31 9 37t28 6h90q72 0 101.5 28t45.5 118l217 1237q8 39 41 39h23
q26 0 26 -29z" />
    <glyph glyph-name="k" unicode="k" horiz-adv-x="909" 
d="M342 621l588 471q24 18 57 18q37 0 37 -27q0 -22 -27 -43l-583 -462l282 -363q135 -172 138.5 -179.5t3.5 -15.5q0 -32 -41 -32q-14 0 -25.5 2t-20.5 8t-72 89l-347 456l-59 -321q-34 -185 -36.5 -193.5t-15 -18.5t-26.5 -10h-13q-32 0 -32 33v6l256 1444q3 15 16 27
t29 12h12q33 0 33 -33v-6z" />
    <glyph glyph-name="l" unicode="l" horiz-adv-x="418" 
d="M516 1491v-8l-256 -1444q-8 -39 -41 -39h-20q-29 0 -29 31v8l256 1444q8 39 41 39h20q29 0 29 -31z" />
    <glyph glyph-name="m" unicode="m" horiz-adv-x="1528" 
d="M920 1026q187 84 325 84q130 0 206.5 -67t76.5 -191q0 -33 -8 -80l-129 -733q-8 -39 -41 -39h-21q-29 0 -29 31v8l130 733q8 57 8 78q0 180 -207 180q-125 0 -283 -69q8 -30 8 -80q0 -43 -10 -101l-131 -741q-8 -39 -37 -39h-30q-23 0 -23 29v10l131 741q10 58 10 94
q0 156 -157 156q-114 0 -310 -86l-159 -905q-8 -39 -37 -39h-29q-24 0 -24 31v8l180 1020q7 41 45 41h16q29 0 29 -31v-10l-6 -37q189 88 311 88q137 0 195 -84z" />
    <glyph glyph-name="n" unicode="n" horiz-adv-x="1067" 
d="M414 1026q187 84 329 84q148 0 233 -75.5t85 -217.5q0 -44 -12 -106l-119 -671q-3 -17 -16 -28.5t-29 -11.5h-15q-30 0 -30 33v6l122 686q7 39 7 86q0 219 -230 219q-149 0 -340 -84l-159 -907q-3 -16 -16.5 -27.5t-28.5 -11.5h-13q-32 0 -32 33v6l180 1020q7 41 45 41
h16q29 0 29 -31v-10z" />
    <glyph glyph-name="o" unicode="o" horiz-adv-x="1069" 
d="M731 1110q168 0 257 -91.5t89 -262.5q0 -103 -47.5 -327t-173 -332.5t-324.5 -108.5q-167 0 -257.5 93.5t-90.5 264.5q0 99 48 322.5t174 332.5t325 109zM547 68q156 0 259 96.5t143 307.5t40 290q0 268 -272 268q-155 0 -260 -98.5t-145 -307.5t-40 -288
q0 -268 275 -268z" />
    <glyph glyph-name="p" unicode="p" horiz-adv-x="1032" 
d="M238 20l-44 -245q-24 -138 -27 -147t-14 -18t-24 -9h-20q-29 0 -29 32v7l246 1392q4 24 18 32.5t130.5 27t240.5 18.5q159 0 243 -91t84 -259q0 -99 -42.5 -300t-115.5 -299t-165 -135.5t-203 -37.5q-133 0 -278 32zM252 98q150 -30 278 -30q146 0 241 89.5t139 305
t44 311.5q0 132 -62 194t-192 62q-124 0 -290 -31z" />
    <glyph glyph-name="q" unicode="q" horiz-adv-x="1032" 
d="M803 18q-136 -30 -258 -30q-363 0 -363 338q0 72 33.5 255.5t94 296t160 172.5t235.5 60q106 0 224.5 -18t131 -25t12.5 -20q0 -3 -2 -15l-246 -1392q-7 -39 -41 -39h-20q-29 0 -29 32v7zM975 1004q-155 26 -270 26q-152 0 -247.5 -88t-140.5 -301t-45 -307
q0 -268 273 -268q120 0 270 30z" />
    <glyph glyph-name="r" unicode="r" horiz-adv-x="633" 
d="M750 1085v-6q-5 -33 -15.5 -40t-40.5 -7q-124 0 -295 -96l-159 -897q-3 -16 -16.5 -27.5t-28.5 -11.5h-13q-32 0 -32 33v6l180 1020q7 41 45 41h16q30 0 30 -35l-9 -49q151 94 290 94q48 0 48 -25z" />
    <glyph glyph-name="s" unicode="s" horiz-adv-x="901" 
d="M948 1061v-4q-4 -33 -9 -39t-24 -6l-16 2q-20 0 -94 6q-128 10 -189 10q-147 0 -206.5 -46t-59.5 -148q0 -46 36.5 -89.5t129.5 -101.5q176 -109 228.5 -148t79 -84t26.5 -106q0 -168 -114.5 -243.5t-293.5 -75.5q-78 0 -178.5 11.5t-126.5 20t-26 25.5v4q6 34 10.5 40.5
t17.5 6.5q11 0 19 -2q179 -26 303 -26q299 0 299 239q0 50 -37 89t-141 102q-156 94 -203.5 129.5t-83 88.5t-35.5 115q0 149 99.5 214t256.5 65q105 0 208.5 -8.5t113.5 -18.5t10 -22z" />
    <glyph glyph-name="t" unicode="t" horiz-adv-x="778" 
d="M885 1075v-8q-7 -33 -18 -42t-31 -9h-242l-143 -807q-7 -34 -7 -55q0 -43 22 -64.5t101 -21.5h99q36 0 36 -23v-6q-4 -26 -13 -34.5t-44.5 -12.5t-91.5 -4q-199 0 -199 157q0 29 6 64l144 807h-205q-33 0 -33 26v9q7 35 17 42t32 7h205q33 191 35 199.5t12.5 19
t26.5 10.5h22q27 0 27 -29v-10l-33 -190h242q33 0 33 -25z" />
    <glyph glyph-name="u" unicode="u" horiz-adv-x="1069" 
d="M1114 1067v-6l-182 -1022q-8 -41 -45 -41h-17q-26 0 -26 33v8l4 33q-191 -86 -330 -86q-147 0 -231 76t-84 219q0 52 26 195l65 365q40 222 42.5 230.5t15 18.5t27.5 10h14q31 0 31 -33v-6l-89 -495q-38 -208 -40 -233.5t-2 -51.5q0 -215 229 -215q145 0 340 86l162 909
q3 15 16.5 27t28.5 12h12q33 0 33 -33z" />
    <glyph glyph-name="v" unicode="v" horiz-adv-x="983" 
d="M1069 1100q25 0 25 -23q0 -11 -9 -28l-432 -932q-30 -65 -66.5 -97t-94.5 -32q-107 0 -121 129l-105 932v8q0 43 37 43h21q26 0 30 -37l99 -924q7 -73 49 -73q35 0 69 73l426 924q16 37 43 37h29z" />
    <glyph glyph-name="w" unicode="w" horiz-adv-x="1540" 
d="M1595 1100q31 0 31 -31q0 -8 -4 -18l-391 -949q-27 -63 -55 -88.5t-68 -25.5q-38 0 -59 21t-29 100l-80 774q-2 24 -10 24q-7 0 -19 -24l-354 -774q-30 -66 -55.5 -93.5t-73.5 -27.5q-39 0 -58.5 24t-23.5 90l-59 949v2q0 18 13.5 32.5t33.5 14.5h8q25 0 27 -29l55 -948
q2 -55 18 -55q11 0 35 53l361 790q36 78 100 78q68 0 76 -78l82 -790q5 -53 20 -53q14 0 37 55l387 948q12 29 39 29h16z" />
    <glyph glyph-name="x" unicode="x" horiz-adv-x="1010" 
d="M621 635l347 398q49 57 56 60.5t14.5 5t14.5 1.5h18q29 0 29 -23q0 -16 -10 -27l-433 -493l181 -338q92 -171 95 -179t3 -15q0 -25 -31 -25h-22q-24 0 -29 9l-258 480l-418 -473q-12 -16 -28 -16h-25q-33 0 -33 25q0 12 11 25l452 515l-260 486q-4 6 -4 22q0 27 31 27h20
q16 0 23.5 -7t91.5 -159z" />
    <glyph glyph-name="y" unicode="y" horiz-adv-x="995" 
d="M559 84l455 989q11 27 43 27h22q25 0 25 -25q0 -13 -6 -26l-541 -1164q-85 -184 -163.5 -234t-217.5 -50q-42 0 -91 6.5t-60 12.5t-11 18v4q7 34 15.5 42.5t27.5 8.5h11q15 0 62 -6q50 -6 67 -6q84 0 134.5 25.5t83 77t105.5 216.5h-24q-62 0 -80 28.5t-25 86.5l-112 936
v6q0 18 12 30.5t31 12.5h14q23 0 26 -29l111 -942q3 -32 9 -38.5t30 -6.5h47z" />
    <glyph glyph-name="z" unicode="z" horiz-adv-x="913" 
d="M877 1100q108 0 108 -84q0 -52 -41 -96l-733 -797q-18 -23 -18 -25q0 -14 18 -14h594q37 0 37 -25v-6q-7 -33 -19 -43t-32 -10h-592q-40 0 -65 26.5t-25 63.5q0 41 30 74l752 813q10 10 10 22q0 17 -24 17h-539q-35 0 -35 24v7q7 33 19 43t32 10h523z" />
    <glyph glyph-name="braceleft" unicode="{" horiz-adv-x="614" 
d="M836 1487l-2 -17q-2 -15 -15.5 -23.5t-30.5 -8.5h-94q-51 0 -84 -5.5t-53 -21t-31 -43t-18 -72.5l-74 -417q-10 -55 -23.5 -100t-35.5 -83.5t-53 -72t-76 -64.5q46 -43 66 -92.5t20 -112.5q0 -24 -2 -51.5t-8 -58.5l-74 -418q-6 -38 -6 -64q0 -24 7 -39t23.5 -23.5
t44 -11.5t68.5 -3h94q33 0 33 -29v-2v-2l-2 -17q-2 -15 -15 -24.5t-30 -9.5h-94q-55 0 -96 8t-68.5 26.5t-41 48.5t-13.5 74q0 30 6 68l73 418q13 65 13 114q0 53 -19.5 91.5t-68.5 78.5l12 74q46 29 75.5 55.5t48.5 57.5t30.5 70t21.5 94l74 417q12 70 33 114t55 69
t83.5 34t119.5 9h94q15 0 24 -7.5t9 -21.5v-4v-2z" />
    <glyph glyph-name="bar" unicode="|" horiz-adv-x="459" 
d="M418 -360q0 -16 -10 -27.5t-25 -11.5h-21q-15 0 -24.5 11.5t-9.5 27.5v1843q0 15 9.5 27t24.5 12h21q15 0 25 -12t10 -27v-1843v0z" />
    <glyph glyph-name="braceright" unicode="}" horiz-adv-x="614" 
d="M662 1362q0 -16 -2 -31.5t-5 -34.5l-73 -417q-7 -36 -11 -65t-4 -54q0 -26 4.5 -48t15 -42t27.5 -39t41 -39l-12 -74q-46 -29 -75 -55t-48 -56.5t-30 -69.5t-21 -93l-74 -418q-11 -65 -27.5 -108t-47.5 -69t-82.5 -37t-133.5 -11h-94q-15 0 -24 7t-9 21v6l3 17
q2 15 15 24t30 9h94q50 0 82.5 5.5t53 20.5t31.5 42.5t19 72.5l74 418q10 54 24.5 99t36 83t52 70.5t73.5 62.5q-46 43 -66 91t-20 110q0 26 3 56.5t10 62.5l73 417q6 37 6 64q0 24 -7 39t-23.5 23.5t-44 12t-68.5 3.5h-94q-14 0 -23.5 6t-9.5 20v6l2 17q2 15 15 25t30 10
h94q118 0 169 -40.5t51 -119.5z" />
    <glyph glyph-name="asciitilde" unicode="~" 
d="M1135 940q0 -110 -49.5 -161.5t-135.5 -51.5q-48 0 -85.5 17t-71.5 49l-117 112q-29 28 -56.5 50t-56.5 22q-49 0 -79.5 -32t-30.5 -107v-62q0 -20 -3.5 -29.5t-19.5 -9.5h-31q-15 0 -20.5 9.5t-5.5 29.5v62q0 111 50.5 164t137.5 53q48 0 86 -19t72 -51l117 -113
q29 -27 56 -45t56 -18q54 0 80.5 28t26.5 103v64q0 20 3.5 28t18.5 8h31q15 0 21 -8t6 -28v-64v0z" />
    <glyph glyph-name="currency" unicode="&#xa4;" 
d="M1327 1477l-4 -25q-3 -15 -10.5 -20t-20.5 -5h-8h-4q-54 7 -124.5 13t-166.5 6q-85 0 -167.5 -21t-154.5 -76t-128.5 -149.5t-89.5 -241.5h673q14 0 23.5 -5.5t9.5 -16.5q0 -6 -2 -10l-8 -19q-6 -15 -18 -24t-29 -9h-666l-39 -219h608q14 0 24.5 -5.5t10.5 -16.5v-4.5
t-2 -5.5l-8 -19q-6 -15 -18 -24t-29 -9h-600q-5 -29 -6.5 -60.5t-1.5 -57.5q0 -109 31 -182t83.5 -116.5t120.5 -62t142 -18.5q95 0 167 6t129 12h5h8q12 0 17 -3.5t5 -14.5v-6l-4 -25q-3 -15 -17 -24t-28 -11q-21 -2 -43 -5.5t-55 -6.5t-80.5 -5.5t-118.5 -2.5
q-83 0 -164 25t-145 80t-103.5 143.5t-39.5 216.5q0 27 1.5 56.5t6.5 61.5h-90q-31 0 -31 25v8l4 19q3 15 15.5 23.5t29.5 8.5h86l39 219h-90q-31 0 -31 25v8l4 19q3 15 16.5 23.5t30.5 8.5h86q26 116 66.5 204t91 151.5t109 105.5t120.5 67.5t125.5 35.5t124.5 10
q71 0 119 -2.5t81.5 -5.5t56 -6.5t42.5 -6.5q13 -2 23 -9t10 -21v-4z" />
    <glyph glyph-name="brokenbar" unicode="&#xa6;" horiz-adv-x="459" 
d="M274 739q0 -15 -9.5 -27t-24.5 -12h-21q-15 0 -25 12t-10 27v713q0 16 10 27.5t25 11.5h21q15 0 24.5 -11.5t9.5 -27.5v-713zM274 -393q0 -16 -9.5 -27.5t-24.5 -11.5h-21q-15 0 -25 11.5t-10 27.5v712q0 16 10 27.5t25 11.5h21q15 0 24.5 -11.5t9.5 -27.5v-712z" />
    <glyph glyph-name="section" unicode="&#xa7;" horiz-adv-x="1067" 
d="M1184 1479l-2 -17q-2 -15 -15 -23.5t-30 -8.5t-52 2.5t-78.5 5.5t-90 5.5t-85.5 2.5q-77 0 -153.5 -10.5t-137.5 -42t-99 -89.5t-38 -153q0 -34 11 -63t35.5 -58.5t63 -61t93.5 -69.5l178 -123q72 -50 120 -94.5t76.5 -86t40 -81t11.5 -78.5q0 -32 -6 -65
q-6 -36 -14.5 -67t-20.5 -58.5t-28 -52.5t-37 -50q18 -32 25 -64.5t7 -66.5q0 -124 -43 -210.5t-117.5 -140.5t-175 -78.5t-214.5 -24.5q-101 0 -176.5 5t-135.5 11q-12 2 -20 10.5t-8 22.5v4v2l2 12q3 17 18 26t31 9h2h2q39 -3 74.5 -6t71.5 -5t73.5 -3.5t79.5 -1.5
q90 0 170.5 19t141.5 61t96.5 110.5t35.5 167.5q0 37 -11.5 69t-38 64t-69 67t-104.5 77l-184 124q-65 45 -108 85.5t-68.5 78.5t-36 74t-10.5 72q0 30 6 57q7 43 18 75t25 57t31 45.5t36 41.5q-18 26 -30.5 65t-12.5 87q0 120 46.5 196.5t122.5 119.5t172.5 59t197.5 16
q35 0 81 -1.5t90.5 -3.5t82 -4.5t55.5 -4.5q14 -2 20.5 -11.5t6.5 -21.5v-4v-2zM942 430q0 32 -10 62.5t-35.5 63.5t-68.5 69.5t-109 81.5l-184 124q-39 26 -69 49.5t-54 45.5q-32 -29 -51.5 -67.5t-28.5 -88.5q-3 -14 -3.5 -26t-0.5 -23q0 -33 11 -62t35 -58t62.5 -60.5
t93.5 -69.5l179 -123q55 -38 95.5 -70.5t69.5 -64.5q23 34 38.5 72.5t23.5 85.5q6 30 6 59z" />
    <glyph glyph-name="afii10023" unicode="&#xa8;" horiz-adv-x="1092" 
d="M1086 1704q-3 -16 -16 -27.5t-29 -11.5h-12q-33 0 -33 32q0 3 13.5 82t17 87.5t16.5 18t27 9.5h12q31 0 31 -39zM779 1704q-3 -16 -16 -27.5t-29 -11.5h-12q-34 0 -34 32q0 3 14 82t17.5 87.5t16.5 18t27 9.5h12q31 0 31 -39zM990 35q-9 -35 -43 -35h-528
q-214 0 -214 177q0 31 7 67l186 1048q22 121 82 175.5t195 54.5h540q34 0 34 -28q0 -14 -10 -35t-40 -21h-528q-79 0 -120.5 -25t-58.5 -103l-84 -468h686q34 0 34 -26q0 -31 -14 -46.5t-36 -15.5h-686l-65 -372q-29 -165 -30.5 -177t-1.5 -25q0 -49 28 -72.5t110 -23.5h528
q33 0 33 -33z" />
    <glyph glyph-name="afii10023" unicode="&#x401;" horiz-adv-x="1092" 
d="M1086 1704q-3 -16 -16 -27.5t-29 -11.5h-12q-33 0 -33 32q0 3 13.5 82t17 87.5t16.5 18t27 9.5h12q31 0 31 -39zM779 1704q-3 -16 -16 -27.5t-29 -11.5h-12q-34 0 -34 32q0 3 14 82t17.5 87.5t16.5 18t27 9.5h12q31 0 31 -39zM990 35q-9 -35 -43 -35h-528
q-214 0 -214 177q0 31 7 67l186 1048q22 121 82 175.5t195 54.5h540q34 0 34 -28q0 -14 -10 -35t-40 -21h-528q-79 0 -120.5 -25t-58.5 -103l-84 -468h686q34 0 34 -26q0 -31 -14 -46.5t-36 -15.5h-686l-65 -372q-29 -165 -30.5 -177t-1.5 -25q0 -49 28 -72.5t110 -23.5h528
q33 0 33 -33z" />
    <glyph glyph-name="copyright" unicode="&#xa9;" horiz-adv-x="1495" 
d="M1563 766q0 -136 -52 -255t-141 -207.5t-209 -139.5t-256 -51t-255 51t-207.5 139.5t-139.5 207.5t-51 255q0 90 23 174.5t65.5 157.5t102 133.5t132 103.5t156 66.5t174.5 23.5t175 -23.5t157 -66.5t133 -103.5t103 -133.5t66.5 -157.5t23.5 -174.5zM1483 766
q0 80 -20.5 154t-58 138.5t-90.5 117.5t-117 90.5t-138 58.5t-154 21t-153.5 -21t-137.5 -58.5t-117 -90.5t-90.5 -117.5t-58 -138.5t-20.5 -154q0 -120 45.5 -225t123.5 -183t183 -123t225 -45t225.5 45t183.5 123t123.5 183t45.5 225zM1112 375q0 -16 -11.5 -23.5
t-21.5 -9.5q-23 -3 -70.5 -7.5t-127.5 -4.5q-56 0 -109 18.5t-94 61.5t-65.5 113.5t-24.5 174.5v148q0 104 24.5 174.5t65.5 113.5t94 61.5t109 18.5q80 0 127.5 -4.5t70.5 -7.5q10 -2 21.5 -8.5t11.5 -22.5v-16q0 -15 -8.5 -20t-18.5 -5h-10q-15 2 -37.5 4t-49 3.5t-54 2.5
t-53.5 1q-45 0 -84 -15.5t-68 -50t-46 -91t-17 -138.5v-148q0 -82 17 -138.5t46 -91t68 -50t84 -15.5q26 0 53.5 1t54 3t49 3.5t37.5 3.5h6q10 0 20.5 -5t10.5 -24v-10z" />
    <glyph glyph-name="guillemotleft" unicode="&#xab;" horiz-adv-x="1096" 
d="M1151 915q0 -11 -7 -23t-18 -20l-421 -331l305 -332q10 -13 10 -21q0 -11 -14 -22l-17 -14q-13 -11 -22 -11q-8 0 -15.5 5.5t-13.5 11.5l-307 334q-19 20 -19 45q0 18 10.5 38t30.5 35l422 334q9 6 17.5 10t17.5 4q12 0 20 -8l17 -20q3 -3 3.5 -6.5t0.5 -8.5zM680 915
q0 -11 -7 -23t-18 -20l-422 -331l306 -332q10 -13 10 -21q0 -11 -14 -22l-17 -14q-13 -11 -22 -11q-8 0 -15.5 5.5t-13.5 11.5l-307 334q-19 20 -19 45q0 18 10.5 38t30.5 35l422 334q9 6 17.5 10t17.5 4q12 0 20 -8l17 -20q4 -4 4 -15z" />
    <glyph glyph-name="logicalnot" unicode="&#xac;" 
d="M1157 594q0 -17 -8 -29t-25 -12h-20q-17 0 -25 12t-8 29v369h-702q-17 0 -29 7.5t-12 24.5v21q0 17 12 25t29 8h755q16 0 24.5 -11.5t8.5 -25.5v-418v0z" />
    <glyph glyph-name="registered" unicode="&#xae;" horiz-adv-x="1262" 
d="M1354 991q0 -111 -42.5 -209t-115.5 -170.5t-171.5 -114.5t-209.5 -42t-209.5 42t-171.5 114.5t-115.5 170.5t-42.5 209t42.5 209.5t115.5 171.5t171.5 115.5t209.5 42.5t209.5 -42.5t171.5 -115.5t115.5 -171.5t42.5 -209.5zM1282 991q0 97 -36.5 182t-100 148.5
t-148.5 100t-182 36.5t-181.5 -36.5t-147.5 -100t-99.5 -148.5t-36.5 -182t36.5 -181.5t99.5 -147.5t147.5 -99.5t181.5 -36.5t182 36.5t148.5 99.5t100 147.5t36.5 181.5zM1059 676q0 -9 -6 -18t-23 -9h-10q-8 0 -16 5t-11 10l-186 284h-2q-8 0 -14 1t-15 1h-69h-31v-268
q0 -11 -8.5 -22t-22.5 -11h-8q-14 0 -22.5 11t-8.5 22v631q0 11 8 21t21 12q12 1 30 1.5t37.5 1l39 1t34.5 0.5q61 0 109 -10t81 -33.5t50.5 -61.5t17.5 -94v-4q0 -84 -37.5 -128t-111.5 -61l168 -260q6 -9 6 -22zM965 1151q0 74 -45 102.5t-144 28.5h-50.5t-49.5 -2v-262
q22 0 52.5 -1t47.5 -1q51 0 87 6.5t58.5 21.5t33 40t10.5 63v4z" />
    <glyph glyph-name="degree" unicode="&#xb0;" horiz-adv-x="678" 
d="M854 1255q0 -57 -22 -107t-59.5 -87.5t-87.5 -59.5t-107 -22t-107.5 22t-89 59.5t-60.5 87.5t-22 107t22 107.5t60.5 88t89 59.5t107.5 22t107 -22t87.5 -59.5t59.5 -88t22 -107.5zM776 1255q0 41 -16 77.5t-43 64t-63 43.5t-76 16q-42 0 -78 -16t-63 -43.5t-42.5 -64
t-15.5 -77.5t16 -77t43 -63t63 -42.5t77 -15.5q40 0 76 15.5t63 42.5t43 63t16 77z" />
    <glyph glyph-name="plusminus" unicode="&#xb1;" 
d="M1182 791q0 -17 -12 -25t-29 -8h-373v-371q0 -17 -8 -29t-25 -12h-20q-17 0 -25 12t-8 29v371h-371q-17 0 -29 8t-12 25v20q0 17 12 25t29 8h371v373q0 17 8 28.5t25 11.5h20q17 0 25 -11.5t8 -28.5v-373h373q17 0 29 -8t12 -25v-20zM1182 33q0 -17 -12 -25t-29 -8h-830
q-17 0 -29 8t-12 25v20q0 17 12 25t29 8h830q17 0 29 -8t12 -25v-20z" />
    <glyph glyph-name="mu" unicode="&#xb5;" horiz-adv-x="1067" 
d="M1110 1061l-172 -983q-2 -13 -12.5 -23.5t-20.5 -13.5q-40 -12 -86 -22t-93.5 -17t-94 -10.5t-86.5 -3.5q-105 0 -178 32t-115 91l-82 -471q-3 -16 -14 -27.5t-27 -11.5h-20q-14 0 -21.5 9t-7.5 23v7l250 1421q3 15 16.5 27t30.5 12h14q14 0 21.5 -9.5t7.5 -23.5v-6
l-119 -682q-5 -26 -6.5 -49.5t-1.5 -44.5q0 -114 65.5 -165.5t200.5 -51.5q33 0 71.5 3t77.5 8t76 12t68 15l168 955q3 15 17.5 27t29.5 12h12q14 0 22.5 -9.5t8.5 -23.5v-6z" />
    <glyph glyph-name="mu" unicode="&#x3bc;" horiz-adv-x="1067" 
d="M1110 1061l-172 -983q-2 -13 -12.5 -23.5t-20.5 -13.5q-40 -12 -86 -22t-93.5 -17t-94 -10.5t-86.5 -3.5q-105 0 -178 32t-115 91l-82 -471q-3 -16 -14 -27.5t-27 -11.5h-20q-14 0 -21.5 9t-7.5 23v7l250 1421q3 15 16.5 27t30.5 12h14q14 0 21.5 -9.5t7.5 -23.5v-6
l-119 -682q-5 -26 -6.5 -49.5t-1.5 -44.5q0 -114 65.5 -165.5t200.5 -51.5q33 0 71.5 3t77.5 8t76 12t68 15l168 955q3 15 17.5 27t29.5 12h12q14 0 22.5 -9.5t8.5 -23.5v-6z" />
    <glyph glyph-name="paragraph" unicode="&#xb6;" horiz-adv-x="1227" 
d="M1348 1497q0 -3 -1 -7t-1 -7l-326 -1843q-3 -16 -14.5 -27.5t-26.5 -11.5h-21q-14 0 -21 9t-7 23v7l317 1798h-114l-318 -1798q-3 -16 -14 -27.5t-27 -11.5h-20q-14 0 -21.5 9t-7.5 23v7l162 923h-223q-93 0 -167.5 23t-126.5 68t-80 110.5t-28 150.5q0 25 2.5 51t7.5 54
l9 45q20 111 69 196t121 143t164.5 88t198.5 30h485q29 0 29 -25z" />
    <glyph glyph-name="periodcentered" unicode="&#xb7;" horiz-adv-x="344" 
d="M375 889l-29 -152q-3 -17 -16 -28t-29 -11h-12q-14 0 -23.5 9t-9.5 24v6l29 152q3 15 16 27t29 12h12q14 0 23.5 -9.5t9.5 -23.5v-6z" />
    <glyph glyph-name="periodcentered" unicode="&#x2219;" horiz-adv-x="344" 
d="M375 889l-29 -152q-3 -17 -16 -28t-29 -11h-12q-14 0 -23.5 9t-9.5 24v6l29 152q3 15 16 27t29 12h12q14 0 23.5 -9.5t9.5 -23.5v-6z" />
    <glyph glyph-name="afii10071" unicode="&#xb8;" horiz-adv-x="1047" 
d="M674 1333q-7 -39 -45 -39h-13q-33 0 -33 29q0 5 14 84t16 88.5t12 19t30 9.5h13q21 0 26.5 -8.5t5.5 -30.5zM981 1333q-7 -39 -45 -39h-12q-34 0 -34 29q0 5 14 84t16 88.5t12.5 19t30.5 9.5h12q21 0 27 -8.5t6 -30.5zM1032 567q-7 -39 -45 -39h-692q-21 -100 -21 -180
q0 -158 81.5 -219t228.5 -61q135 0 309 34q11 2 18 2q21 0 21 -20q0 -36 -15 -48t-130.5 -30t-208.5 -18q-396 0 -396 358q0 103 50.5 321.5t176.5 330.5t302 112q168 0 256 -90t88 -260q0 -71 -13 -137zM950 610q17 99 17 156q0 264 -260 264q-314 0 -398 -420h641z" />
    <glyph glyph-name="afii10071" unicode="&#x451;" horiz-adv-x="1047" 
d="M674 1333q-7 -39 -45 -39h-13q-33 0 -33 29q0 5 14 84t16 88.5t12 19t30 9.5h13q21 0 26.5 -8.5t5.5 -30.5zM981 1333q-7 -39 -45 -39h-12q-34 0 -34 29q0 5 14 84t16 88.5t12.5 19t30.5 9.5h12q21 0 27 -8.5t6 -30.5zM1032 567q-7 -39 -45 -39h-692q-21 -100 -21 -180
q0 -158 81.5 -219t228.5 -61q135 0 309 34q11 2 18 2q21 0 21 -20q0 -36 -15 -48t-130.5 -30t-208.5 -18q-396 0 -396 358q0 103 50.5 321.5t176.5 330.5t302 112q168 0 256 -90t88 -260q0 -71 -13 -137zM950 610q17 99 17 156q0 264 -260 264q-314 0 -398 -420h641z" />
    <glyph glyph-name="guillemotright" unicode="&#xbb;" horiz-adv-x="1096" 
d="M1149 563q0 -18 -10.5 -38t-30.5 -36l-422 -333q-9 -7 -17 -11t-18 -4q-12 0 -20 9l-17 20q-4 4 -4 14q0 11 7 23t18 20l422 332l-305 332q-11 13 -11 20q0 12 15 23l16 14q13 10 23 10q8 0 15 -5t13 -11l307 -334q19 -20 19 -45zM678 563q0 -18 -10.5 -38t-30.5 -36
l-422 -333q-9 -7 -17 -11t-18 -4q-12 0 -20 9l-17 20q-4 4 -4 14q0 11 7 23t18 20l422 332l-305 332q-11 13 -11 20q0 12 15 23l16 14q13 10 23 10q8 0 15 -5t13 -11l307 -334q19 -20 19 -45z" />
    <glyph glyph-name="afii10017" unicode="&#xc0;" horiz-adv-x="1268" 
d="M1144 -6q-26 0 -31 9t-30 197l-50 375h-590l-186 -389q-85 -176 -93 -184t-32 -8h-18q-26 0 -26 27q0 13 5 24l666 1387q46 100 149 100t115 -98l174 -1389q0 -32 -4 -38q-8 -13 -33 -13h-16zM1027 666l-92 743q-4 41 -41 41q-35 0 -53 -39l-357 -745h543z" />
    <glyph glyph-name="afii10017" unicode="&#x410;" horiz-adv-x="1268" 
d="M1144 -6q-26 0 -31 9t-30 197l-50 375h-590l-186 -389q-85 -176 -93 -184t-32 -8h-18q-26 0 -26 27q0 13 5 24l666 1387q46 100 149 100t115 -98l174 -1389q0 -32 -4 -38q-8 -13 -33 -13h-16zM1027 666l-92 743q-4 41 -41 41q-35 0 -53 -39l-357 -745h543z" />
    <glyph glyph-name="afii10018" unicode="&#xc1;" 
d="M467 1522h721q32 0 32 -28q0 -56 -49 -56h-665l-100 -574q119 13 299 13q214 0 338 -86t124 -250q0 -104 -46.5 -242.5t-187.5 -225.5t-427 -87q-123 0 -220.5 8.5t-106.5 15t-9 31.5l254 1442q7 39 43 39zM266 80q173 -12 254 -12q249 0 368 75.5t155 199t36 198.5
q0 128 -93.5 191t-309.5 63q-114 0 -285 -13z" />
    <glyph glyph-name="afii10018" unicode="&#x411;" 
d="M467 1522h721q32 0 32 -28q0 -56 -49 -56h-665l-100 -574q119 13 299 13q214 0 338 -86t124 -250q0 -104 -46.5 -242.5t-187.5 -225.5t-427 -87q-123 0 -220.5 8.5t-106.5 15t-9 31.5l254 1442q7 39 43 39zM266 80q173 -12 254 -12q249 0 368 75.5t155 199t36 198.5
q0 128 -93.5 191t-309.5 63q-114 0 -285 -13z" />
    <glyph glyph-name="afii10019" unicode="&#xc2;" 
d="M969 799q198 -59 198 -264q0 -65 -25.5 -169.5t-82.5 -178t-137 -117.5t-182 -64t-234 -20q-137 0 -229 8.5t-99.5 15.5t-7.5 31l254 1440q3 13 13 23t22 13.5t123 9t196 5.5q263 0 381.5 -81.5t118.5 -246.5q0 -321 -309 -405zM401 844h371q416 0 416 354
q0 129 -93 191.5t-329 62.5q-95 0 -258 -8zM266 80q173 -12 254 -12q247 0 369 76.5t155 197.5t33 193q0 221 -319 221h-371z" />
    <glyph glyph-name="afii10019" unicode="&#x412;" 
d="M969 799q198 -59 198 -264q0 -65 -25.5 -169.5t-82.5 -178t-137 -117.5t-182 -64t-234 -20q-137 0 -229 8.5t-99.5 15.5t-7.5 31l254 1440q3 13 13 23t22 13.5t123 9t196 5.5q263 0 381.5 -81.5t118.5 -246.5q0 -321 -309 -405zM401 844h371q416 0 416 354
q0 129 -93 191.5t-329 62.5q-95 0 -258 -8zM266 80q173 -12 254 -12q247 0 369 76.5t155 197.5t33 193q0 221 -319 221h-371z" />
    <glyph glyph-name="afii10020" unicode="&#xc3;" horiz-adv-x="1061" 
d="M481 1292l-221 -1253q-8 -39 -41 -39h-20q-17 0 -23 8t-6 31l221 1253q22 122 83 176t206 54h528q35 0 35 -24q0 -29 -12.5 -44.5t-38.5 -15.5h-528q-100 0 -135 -37t-48 -109z" />
    <glyph glyph-name="afii10020" unicode="&#x413;" horiz-adv-x="1061" 
d="M481 1292l-221 -1253q-8 -39 -41 -39h-20q-17 0 -23 8t-6 31l221 1253q22 122 83 176t206 54h528q35 0 35 -24q0 -29 -12.5 -44.5t-38.5 -15.5h-528q-100 0 -135 -37t-48 -109z" />
    <glyph glyph-name="afii10021" unicode="&#xc4;" horiz-adv-x="1403" 
d="M127 47q7 37 39 37h49l645 1348q47 100 150 100q102 0 114 -98l170 -1350h56q28 0 28 -23q0 -8 -23.5 -142.5t-30.5 -148.5t-32 -14h-20q-30 0 -30 29q0 5 38 215h-1071q-37 -205 -39 -214.5t-12 -19.5t-33 -10h-14q-18 0 -23.5 9t-5.5 30zM946 1411l-631 -1327h889
l-164 1325q-4 41 -41 41q-34 0 -53 -39z" />
    <glyph glyph-name="afii10021" unicode="&#x414;" horiz-adv-x="1403" 
d="M127 47q7 37 39 37h49l645 1348q47 100 150 100q102 0 114 -98l170 -1350h56q28 0 28 -23q0 -8 -23.5 -142.5t-30.5 -148.5t-32 -14h-20q-30 0 -30 29q0 5 38 215h-1071q-37 -205 -39 -214.5t-12 -19.5t-33 -10h-14q-18 0 -23.5 9t-5.5 30zM946 1411l-631 -1327h889
l-164 1325q-4 41 -41 41q-34 0 -53 -39z" />
    <glyph glyph-name="afii10022" unicode="&#xc5;" horiz-adv-x="1092" 
d="M983 35q-7 -35 -43 -35h-528q-213 0 -213 178q0 36 6 70l190 1063q19 109 85 160t200 51h528q34 0 34 -25q0 -11 -8.5 -35t-41.5 -24h-528q-79 0 -120.5 -25t-58.5 -103l-84 -468h686q34 0 34 -24q0 -64 -50 -64h-686l-70 -400q-26 -148 -26 -174q0 -49 26.5 -72.5
t110.5 -23.5h528q33 0 33 -24q0 -5 -2 -15z" />
    <glyph glyph-name="afii10022" unicode="&#x415;" horiz-adv-x="1092" 
d="M983 35q-7 -35 -43 -35h-528q-213 0 -213 178q0 36 6 70l190 1063q19 109 85 160t200 51h528q34 0 34 -25q0 -11 -8.5 -35t-41.5 -24h-528q-79 0 -120.5 -25t-58.5 -103l-84 -468h686q34 0 34 -24q0 -64 -50 -64h-686l-70 -400q-26 -148 -26 -174q0 -49 26.5 -72.5
t110.5 -23.5h528q33 0 33 -24q0 -5 -2 -15z" />
    <glyph glyph-name="afii10024" unicode="&#xc6;" horiz-adv-x="1802" 
d="M1001 827l73 413q42 243 44 252t14 19.5t31 10.5h13q32 0 32 -25q0 -3 -31 -183l-85 -487l815 680q27 23 59 23q33 0 33 -29q0 -26 -31 -51l-805 -668l574 -729q8 -11 8 -22q0 -35 -45 -35q-30 0 -43 16l-580 738l-125 -711q-7 -39 -41 -39h-20q-19 0 -24 8t-5 31
l125 711l-823 -725q-34 -29 -72 -29q-31 0 -31 31q0 17 25 39l832 729l-572 667q-10 14 -10 31q0 37 45 37q24 0 43 -23z" />
    <glyph glyph-name="afii10024" unicode="&#x416;" horiz-adv-x="1802" 
d="M1001 827l73 413q42 243 44 252t14 19.5t31 10.5h13q32 0 32 -25q0 -3 -31 -183l-85 -487l815 680q27 23 59 23q33 0 33 -29q0 -26 -31 -51l-805 -668l574 -729q8 -11 8 -22q0 -35 -45 -35q-30 0 -43 16l-580 738l-125 -711q-7 -39 -41 -39h-20q-19 0 -24 8t-5 31
l125 711l-823 -725q-34 -29 -72 -29q-31 0 -31 31q0 17 25 39l832 729l-572 667q-10 14 -10 31q0 37 45 37q24 0 43 -23z" />
    <glyph glyph-name="afii10025" unicode="&#xc7;" 
d="M1087 408q-62 -420 -571 -420q-104 0 -203.5 13.5t-116 22t-16.5 25.5q0 29 10 40t39 11q182 -26 291 -26q212 0 319.5 75t136 193.5t28.5 165.5q0 108 -62.5 178t-179.5 70h-379q-38 0 -38 29q0 59 54 59h377q169 0 260.5 112t91.5 277q0 114 -81 163.5t-285 49.5
q-127 0 -291 -29q-10 -2 -18 -2q-28 0 -28 25q0 21 9 37.5t32.5 22.5t123.5 19t186 13q236 0 342.5 -71.5t106.5 -223.5q0 -138 -61.5 -256.5t-221.5 -185.5q156 -79 156 -283q0 -36 -4 -63z" />
    <glyph glyph-name="afii10025" unicode="&#x417;" 
d="M1087 408q-62 -420 -571 -420q-104 0 -203.5 13.5t-116 22t-16.5 25.5q0 29 10 40t39 11q182 -26 291 -26q212 0 319.5 75t136 193.5t28.5 165.5q0 108 -62.5 178t-179.5 70h-379q-38 0 -38 29q0 59 54 59h377q169 0 260.5 112t91.5 277q0 114 -81 163.5t-285 49.5
q-127 0 -291 -29q-10 -2 -18 -2q-28 0 -28 25q0 21 9 37.5t32.5 22.5t123.5 19t186 13q236 0 342.5 -71.5t106.5 -223.5q0 -138 -61.5 -256.5t-221.5 -185.5q156 -79 156 -283q0 -36 -4 -63z" />
    <glyph glyph-name="afii10026" unicode="&#xc8;" horiz-adv-x="1333" 
d="M299 88l932 1380q43 64 108 64q40 0 63 -21.5t23 -58.5q0 -12 -8 -55l-239 -1358q-7 -39 -41 -39h-21q-17 0 -23 8.5t-6 30.5l246 1393q0 14 -8 14q-10 0 -18 -14l-934 -1383q-42 -61 -107 -61q-86 0 -86 78q0 38 6 63l240 1354q7 39 43 39h25q16 0 20 -7.5t4 -31.5
l-246 -1391q0 -18 9 -18q7 0 18 14z" />
    <glyph glyph-name="afii10026" unicode="&#x418;" horiz-adv-x="1333" 
d="M299 88l932 1380q43 64 108 64q40 0 63 -21.5t23 -58.5q0 -12 -8 -55l-239 -1358q-7 -39 -41 -39h-21q-17 0 -23 8.5t-6 30.5l246 1393q0 14 -8 14q-10 0 -18 -14l-934 -1383q-42 -61 -107 -61q-86 0 -86 78q0 38 6 63l240 1354q7 39 43 39h25q16 0 20 -7.5t4 -31.5
l-246 -1391q0 -18 9 -18q7 0 18 14z" />
    <glyph glyph-name="afii10027" unicode="&#xc9;" horiz-adv-x="1333" 
d="M1266 1954q20 0 20 -19q0 -33 -31.5 -114.5t-110 -138t-190.5 -56.5q-121 0 -190.5 64.5t-69.5 171.5q0 42 6.5 67t28.5 25h39q14 0 18 -6v-21q-4 -20 -4 -57q0 -160 172 -160q95 0 159.5 53t82.5 156q3 22 8.5 28.5t20.5 6.5h41zM299 88l932 1380q43 64 108 64
q40 0 63 -21.5t23 -58.5q0 -12 -8 -55l-239 -1358q-7 -39 -41 -39h-21q-17 0 -23 8.5t-6 30.5l246 1393q0 14 -8 14q-10 0 -18 -14l-934 -1383q-42 -61 -107 -61q-86 0 -86 78q0 38 6 63l240 1354q7 39 43 39h25q16 0 20 -7.5t4 -31.5l-246 -1391q0 -18 9 -18q7 0 18 14z
" />
    <glyph glyph-name="afii10027" unicode="&#x419;" horiz-adv-x="1333" 
d="M1266 1954q20 0 20 -19q0 -33 -31.5 -114.5t-110 -138t-190.5 -56.5q-121 0 -190.5 64.5t-69.5 171.5q0 42 6.5 67t28.5 25h39q14 0 18 -6v-21q-4 -20 -4 -57q0 -160 172 -160q95 0 159.5 53t82.5 156q3 22 8.5 28.5t20.5 6.5h41zM299 88l932 1380q43 64 108 64
q40 0 63 -21.5t23 -58.5q0 -12 -8 -55l-239 -1358q-7 -39 -41 -39h-21q-17 0 -23 8.5t-6 30.5l246 1393q0 14 -8 14q-10 0 -18 -14l-934 -1383q-42 -61 -107 -61q-86 0 -86 78q0 38 6 63l240 1354q7 39 43 39h25q16 0 20 -7.5t4 -31.5l-246 -1391q0 -18 9 -18q7 0 18 14z
" />
    <glyph glyph-name="afii10028" unicode="&#xca;" horiz-adv-x="1110" 
d="M1032 61q11 -13 11 -29q0 -36 -37 -36q-28 0 -45 22l-576 732l-125 -711q-8 -39 -41 -39h-20q-19 0 -24 8t-5 31l254 1444q8 39 47 39h12q32 0 32 -30q0 -4 -29 -170l-87 -495l815 680q27 23 58 23q35 0 35 -31q0 -22 -23 -41l-817 -678z" />
    <glyph glyph-name="afii10028" unicode="&#x41a;" horiz-adv-x="1110" 
d="M1032 61q11 -13 11 -29q0 -36 -37 -36q-28 0 -45 22l-576 732l-125 -711q-8 -39 -41 -39h-20q-19 0 -24 8t-5 31l254 1444q8 39 47 39h12q32 0 32 -30q0 -4 -29 -170l-87 -495l815 680q27 23 58 23q35 0 35 -31q0 -22 -23 -41l-817 -678z" />
    <glyph glyph-name="afii10029" unicode="&#xcb;" horiz-adv-x="1268" 
d="M1112 20l-172 1389q-4 41 -41 41q-35 0 -53 -39l-664 -1391q-13 -26 -43 -26h-24q-27 0 -27 26q0 12 6 25l666 1387q46 100 145 100q107 0 119 -98l174 -1389q0 -30 -7.5 -40.5t-33.5 -10.5h-14q-28 0 -31 26z" />
    <glyph glyph-name="afii10029" unicode="&#x41b;" horiz-adv-x="1268" 
d="M1112 20l-172 1389q-4 41 -41 41q-35 0 -53 -39l-664 -1391q-13 -26 -43 -26h-24q-27 0 -27 26q0 12 6 25l666 1387q46 100 145 100q107 0 119 -98l174 -1389q0 -30 -7.5 -40.5t-33.5 -10.5h-14q-28 0 -31 26z" />
    <glyph glyph-name="afii10030" unicode="&#xcc;" horiz-adv-x="1495" 
d="M1337 39q-7 -39 -41 -39h-20q-20 0 -24.5 7.5t-4.5 31.5l246 1393q0 14 -12 14q-13 0 -25 -19l-485 -747q-49 -74 -117 -74q-70 0 -92 74l-223 747q-6 19 -17 19q-14 0 -16 -14l-246 -1393q-8 -39 -41 -39h-20q-18 0 -23.5 9t-5.5 30l246 1393q18 100 121 100
q65 0 84 -64l225 -751q9 -27 22 -27q14 0 31 27l492 751q41 64 100 64q92 0 92 -82q0 -19 -2 -31z" />
    <glyph glyph-name="afii10030" unicode="&#x41c;" horiz-adv-x="1495" 
d="M1337 39q-7 -39 -41 -39h-20q-20 0 -24.5 7.5t-4.5 31.5l246 1393q0 14 -12 14q-13 0 -25 -19l-485 -747q-49 -74 -117 -74q-70 0 -92 74l-223 747q-6 19 -17 19q-14 0 -16 -14l-246 -1393q-8 -39 -41 -39h-20q-18 0 -23.5 9t-5.5 30l246 1393q18 100 121 100
q65 0 84 -64l225 -751q9 -27 22 -27q14 0 31 27l492 751q41 64 100 64q92 0 92 -82q0 -19 -2 -31z" />
    <glyph glyph-name="afii10031" unicode="&#xcd;" horiz-adv-x="1325" 
d="M1167 39q-6 -39 -41 -39h-18q-19 0 -24 8t-5 31l129 733h-819l-129 -733q-8 -39 -41 -39h-20q-18 0 -23.5 9t-5.5 30l254 1444q8 39 43 39h20q27 0 27 -31q0 -8 -28 -167l-83 -468h820l69 394q41 233 43 242t12.5 19.5t28.5 10.5h19q17 0 21.5 -8t4.5 -31z" />
    <glyph glyph-name="afii10031" unicode="&#x41d;" horiz-adv-x="1325" 
d="M1167 39q-6 -39 -41 -39h-18q-19 0 -24 8t-5 31l129 733h-819l-129 -733q-8 -39 -41 -39h-20q-18 0 -23.5 9t-5.5 30l254 1444q8 39 43 39h20q27 0 27 -31q0 -8 -28 -167l-83 -468h820l69 394q41 233 43 242t12.5 19.5t28.5 10.5h19q17 0 21.5 -8t4.5 -31z" />
    <glyph glyph-name="afii10032" unicode="&#xce;" horiz-adv-x="1294" 
d="M1278 616q-55 -307 -214.5 -467.5t-408.5 -160.5q-211 0 -324.5 118.5t-113.5 344.5q0 139 67.5 468t228.5 471t390 142q212 0 325 -118.5t113 -344.5q0 -95 -18 -199zM659 74q117 0 210.5 38t165.5 125t106.5 196.5t74 333.5t39.5 304q0 375 -354 375q-113 0 -205 -36.5
t-165.5 -122.5t-109.5 -197t-76 -336t-40 -305q0 -375 354 -375z" />
    <glyph glyph-name="afii10032" unicode="&#x41e;" horiz-adv-x="1294" 
d="M1278 616q-55 -307 -214.5 -467.5t-408.5 -160.5q-211 0 -324.5 118.5t-113.5 344.5q0 139 67.5 468t228.5 471t390 142q212 0 325 -118.5t113 -344.5q0 -95 -18 -199zM659 74q117 0 210.5 38t165.5 125t106.5 196.5t74 333.5t39.5 304q0 375 -354 375q-113 0 -205 -36.5
t-165.5 -122.5t-109.5 -197t-76 -336t-40 -305q0 -375 354 -375z" />
    <glyph glyph-name="afii10033" unicode="&#xcf;" horiz-adv-x="1325" 
d="M1079 39l226 1278q4 28 4 46q0 42 -25.5 58.5t-83.5 16.5h-571q-65 0 -98.5 -26.5t-45.5 -94.5l-225 -1278q-8 -39 -41 -39h-20q-18 0 -23.5 9t-5.5 30l225 1278q18 102 71.5 153.5t178.5 51.5h563q192 0 192 -155q0 -26 -5 -54l-226 -1274q-7 -39 -41 -39h-20
q-19 0 -24 8t-5 31z" />
    <glyph glyph-name="afii10033" unicode="&#x41f;" horiz-adv-x="1325" 
d="M1079 39l226 1278q4 28 4 46q0 42 -25.5 58.5t-83.5 16.5h-571q-65 0 -98.5 -26.5t-45.5 -94.5l-225 -1278q-8 -39 -41 -39h-20q-18 0 -23.5 9t-5.5 30l225 1278q18 102 71.5 153.5t178.5 51.5h563q192 0 192 -155q0 -26 -5 -54l-226 -1274q-7 -39 -41 -39h-20
q-19 0 -24 8t-5 31z" />
    <glyph glyph-name="afii10034" unicode="&#xd0;" horiz-adv-x="1106" 
d="M1223 1067q-39 -217 -188.5 -320.5t-444.5 -103.5q-107 0 -221 8l-69 -386q-40 -227 -42 -236.5t-11 -19t-28 -9.5h-20q-18 0 -23.5 9t-5.5 30l254 1444q4 21 15.5 30t102 14t203.5 5q492 0 492 -332q0 -52 -8 -98zM381 731q130 -8 223 -8q240 0 356.5 72.5t152.5 200
t36 204.5q0 131 -98 191.5t-318 60.5q-135 0 -225 -6z" />
    <glyph glyph-name="afii10034" unicode="&#x420;" horiz-adv-x="1106" 
d="M1223 1067q-39 -217 -188.5 -320.5t-444.5 -103.5q-107 0 -221 8l-69 -386q-40 -227 -42 -236.5t-11 -19t-28 -9.5h-20q-18 0 -23.5 9t-5.5 30l254 1444q4 21 15.5 30t102 14t203.5 5q492 0 492 -332q0 -52 -8 -98zM381 731q130 -8 223 -8q240 0 356.5 72.5t152.5 200
t36 204.5q0 131 -98 191.5t-318 60.5q-135 0 -225 -6z" />
    <glyph glyph-name="afii10035" unicode="&#xd1;" horiz-adv-x="1100" 
d="M1026 49q-3 -22 -14 -30.5t-117.5 -19.5t-267.5 -11q-196 0 -304 115t-108 335q0 90 21 205q61 337 88 436.5t87 195.5t136.5 152.5t166 80.5t195.5 24q99 0 225 -9.5t134.5 -18.5t8.5 -23q0 -32 -10 -43t-38 -11q-215 19 -340 19q-117 0 -208 -38.5t-160 -126t-102 -195
t-74.5 -335.5t-41.5 -317q0 -360 334 -360q109 0 212 7l151 12q28 0 28 -30z" />
    <glyph glyph-name="afii10035" unicode="&#x421;" horiz-adv-x="1100" 
d="M1026 49q-3 -22 -14 -30.5t-117.5 -19.5t-267.5 -11q-196 0 -304 115t-108 335q0 90 21 205q61 337 88 436.5t87 195.5t136.5 152.5t166 80.5t195.5 24q99 0 225 -9.5t134.5 -18.5t8.5 -23q0 -32 -10 -43t-38 -11q-215 19 -340 19q-117 0 -208 -38.5t-160 -126t-102 -195
t-74.5 -335.5t-41.5 -317q0 -360 334 -360q109 0 212 7l151 12q28 0 28 -30z" />
    <glyph glyph-name="afii10036" unicode="&#xd2;" horiz-adv-x="1169" 
d="M1367 1468q-5 -30 -45 -30h-438l-246 -1399q-8 -39 -41 -39h-21q-17 0 -22.5 9t-5.5 30l246 1399h-441q-31 0 -31 27q0 57 48 57h960q24 0 31.5 -8.5t7.5 -32.5z" />
    <glyph glyph-name="afii10036" unicode="&#x422;" horiz-adv-x="1169" 
d="M1367 1468q-5 -30 -45 -30h-438l-246 -1399q-8 -39 -41 -39h-21q-17 0 -22.5 9t-5.5 30l246 1399h-441q-31 0 -31 27q0 57 48 57h960q24 0 31.5 -8.5t7.5 -32.5z" />
    <glyph glyph-name="afii10037" unicode="&#xd3;" horiz-adv-x="1204" 
d="M1308 1520h8q33 0 33 -25q0 -11 -9 -27l-655 -1198q-105 -192 -182.5 -238t-208.5 -46q-169 0 -169 47q0 46 43 46l142 -13q117 0 169.5 46.5t94.5 123.5l154 286h-4q-55 0 -81.5 19t-43.5 96l-180 833q-2 9 -2 17q0 33 37 33h12q33 0 41 -35l178 -834q6 -28 13 -36.5
t26 -8.5h51l483 887q15 27 50 27z" />
    <glyph glyph-name="afii10037" unicode="&#x423;" horiz-adv-x="1204" 
d="M1308 1520h8q33 0 33 -25q0 -11 -9 -27l-655 -1198q-105 -192 -182.5 -238t-208.5 -46q-169 0 -169 47q0 46 43 46l142 -13q117 0 169.5 46.5t94.5 123.5l154 286h-4q-55 0 -81.5 19t-43.5 96l-180 833q-2 9 -2 17q0 33 37 33h12q33 0 41 -35l178 -834q6 -28 13 -36.5
t26 -8.5h51l483 887q15 27 50 27z" />
    <glyph glyph-name="afii10038" unicode="&#xd4;" horiz-adv-x="1671" 
d="M954 426l-43 -250q-25 -140 -27.5 -149.5t-12 -18t-29.5 -8.5h-17q-29 0 -29 29q0 4 68 397q-111 -8 -184 -8q-228 0 -346.5 89t-118.5 261q0 116 46 248t184 211.5t393 79.5q20 0 180 -7q33 186 35 195t12 19t29 10h20q28 0 28 -28q0 -5 -34 -196l184 7q470 0 470 -329
q0 -95 -42.5 -238.5t-180.5 -232.5t-404 -89q-69 0 -181 8zM969 506q124 -8 180 -8q223 0 338.5 74.5t150.5 199.5t35 202q0 131 -94 192t-301 61q-100 0 -182 -6zM1006 1221q-83 6 -183 6q-222 0 -335.5 -69t-149 -186.5t-35.5 -207.5q0 -137 94.5 -201.5t296.5 -64.5
q61 0 185 8z" />
    <glyph glyph-name="afii10038" unicode="&#x424;" horiz-adv-x="1671" 
d="M954 426l-43 -250q-25 -140 -27.5 -149.5t-12 -18t-29.5 -8.5h-17q-29 0 -29 29q0 4 68 397q-111 -8 -184 -8q-228 0 -346.5 89t-118.5 261q0 116 46 248t184 211.5t393 79.5q20 0 180 -7q33 186 35 195t12 19t29 10h20q28 0 28 -28q0 -5 -34 -196l184 7q470 0 470 -329
q0 -95 -42.5 -238.5t-180.5 -232.5t-404 -89q-69 0 -181 8zM969 506q124 -8 180 -8q223 0 338.5 74.5t150.5 199.5t35 202q0 131 -94 192t-301 61q-100 0 -182 -6zM1006 1221q-83 6 -183 6q-222 0 -335.5 -69t-149 -186.5t-35.5 -207.5q0 -137 94.5 -201.5t296.5 -64.5
q61 0 185 8z" />
    <glyph glyph-name="afii10039" unicode="&#xd5;" horiz-adv-x="1233" 
d="M1119 0q-27 0 -39 25l-326 675l-571 -682q-18 -18 -43 -18h-10q-30 0 -30 24q0 17 15 35l600 719l-333 688q-9 18 -9 30q0 26 37 26h19q29 0 37 -17l313 -649l543 647q16 19 45 19h10q28 0 28 -25q0 -17 -16 -37l-571 -684l348 -717q6 -12 6 -23q0 -36 -41 -36h-12z" />
    <glyph glyph-name="afii10039" unicode="&#x425;" horiz-adv-x="1233" 
d="M1119 0q-27 0 -39 25l-326 675l-571 -682q-18 -18 -43 -18h-10q-30 0 -30 24q0 17 15 35l600 719l-333 688q-9 18 -9 30q0 26 37 26h19q29 0 37 -17l313 -649l543 647q16 19 45 19h10q28 0 28 -25q0 -17 -16 -37l-571 -684l348 -717q6 -12 6 -23q0 -36 -41 -36h-12z" />
    <glyph glyph-name="afii10040" unicode="&#xd6;" horiz-adv-x="1325" 
d="M1339 1483q7 39 45 39h11q23 0 31 -12q3 -4 3 -33l-225 -1272q-15 -83 -47 -121h109q69 0 69 -48q0 -8 -15 -95l-26 -141q-10 -54 -20 -63t-31 -9h-8q-36 0 -36 29q0 5 44 243h-848q-194 0 -194 157q0 27 6 58l223 1268q7 39 45 39h10q23 0 29 -9t6 -34l-225 -1274
q-4 -23 -4 -40q0 -81 106 -81h553q78 0 115.5 27.5t50.5 105.5z" />
    <glyph glyph-name="afii10040" unicode="&#x426;" horiz-adv-x="1325" 
d="M1339 1483q7 39 45 39h11q23 0 31 -12q3 -4 3 -33l-225 -1272q-15 -83 -47 -121h109q69 0 69 -48q0 -8 -15 -95l-26 -141q-10 -54 -20 -63t-31 -9h-8q-36 0 -36 29q0 5 44 243h-848q-194 0 -194 157q0 27 6 58l223 1268q7 39 45 39h10q23 0 29 -9t6 -34l-225 -1274
q-4 -23 -4 -40q0 -81 106 -81h553q78 0 115.5 27.5t50.5 105.5z" />
    <glyph glyph-name="afii10041" unicode="&#xd7;" horiz-adv-x="1157" 
d="M438 1485q30 0 30 -28q0 -4 -65 -376q-12 -67 -12 -116q0 -134 90 -188t326 -54q93 0 223 8l127 715q8 39 41 39h21q18 0 23 -8.5t5 -30.5l-248 -1407q-7 -39 -41 -39h-20q-30 0 -30 29q0 5 28 160l82 462q-121 -8 -225 -8q-265 0 -377.5 76t-112.5 248q0 54 37.5 270.5
t43.5 232t34 15.5h20z" />
    <glyph glyph-name="afii10041" unicode="&#x427;" horiz-adv-x="1157" 
d="M438 1485q30 0 30 -28q0 -4 -65 -376q-12 -67 -12 -116q0 -134 90 -188t326 -54q93 0 223 8l127 715q8 39 41 39h21q18 0 23 -8.5t5 -30.5l-248 -1407q-7 -39 -41 -39h-20q-30 0 -30 29q0 5 28 160l82 462q-121 -8 -225 -8q-265 0 -377.5 76t-112.5 248q0 54 37.5 270.5
t43.5 232t34 15.5h20z" />
    <glyph glyph-name="afii10042" unicode="&#xd8;" horiz-adv-x="1798" 
d="M1676 205q-18 -104 -72 -154.5t-174 -50.5h-1046q-181 0 -181 159q0 30 7 66l221 1258q7 39 43 39h12q22 0 28.5 -8t6.5 -31l-225 -1278q-4 -23 -4 -40q0 -81 106 -81h479l246 1399q7 39 45 39h17q18 0 22 -7.5t4 -31.5l-246 -1399h480q65 0 98 26.5t45 94.5l225 1278
q7 39 43 39h19q18 0 22 -7.5t4 -31.5z" />
    <glyph glyph-name="afii10042" unicode="&#x428;" horiz-adv-x="1798" 
d="M1676 205q-18 -104 -72 -154.5t-174 -50.5h-1046q-181 0 -181 159q0 30 7 66l221 1258q7 39 43 39h12q22 0 28.5 -8t6.5 -31l-225 -1278q-4 -23 -4 -40q0 -81 106 -81h479l246 1399q7 39 45 39h17q18 0 22 -7.5t4 -31.5l-246 -1399h480q65 0 98 26.5t45 94.5l225 1278
q7 39 43 39h19q18 0 22 -7.5t4 -31.5z" />
    <glyph glyph-name="afii10043" unicode="&#xd9;" horiz-adv-x="1798" 
d="M1743 84q59 0 59 -43q0 -9 -24.5 -147.5t-31 -152t-32.5 -13.5h-18q-30 0 -30 25q0 6 44 247h-1333q-100 0 -140 39.5t-40 116.5q0 31 6 71l221 1256q7 39 43 39h20q18 0 22.5 -7.5t4.5 -31.5l-225 -1278q-4 -23 -4 -47q0 -41 23 -57.5t83 -16.5h479l246 1399q7 39 43 39
h19q18 0 22 -7.5t4 -31.5l-246 -1399h478q66 0 99.5 27t45.5 94l225 1278q7 39 43 39h21q18 0 25 -11q1 -3 1 -28l-225 -1278q-13 -73 -47 -121h119z" />
    <glyph glyph-name="afii10043" unicode="&#x429;" horiz-adv-x="1798" 
d="M1743 84q59 0 59 -43q0 -9 -24.5 -147.5t-31 -152t-32.5 -13.5h-18q-30 0 -30 25q0 6 44 247h-1333q-100 0 -140 39.5t-40 116.5q0 31 6 71l221 1256q7 39 43 39h20q18 0 22.5 -7.5t4.5 -31.5l-225 -1278q-4 -23 -4 -47q0 -41 23 -57.5t83 -16.5h479l246 1399q7 39 43 39
h19q18 0 22 -7.5t4 -31.5l-246 -1399h478q66 0 99.5 27t45.5 94l225 1278q7 39 43 39h21q18 0 25 -11q1 -3 1 -28l-225 -1278q-13 -73 -47 -121h119z" />
    <glyph glyph-name="afii10044" unicode="&#xda;" horiz-adv-x="1249" 
d="M479 1438h-248q-34 0 -34 24q0 60 51 60h295q36 0 36 -26q0 -4 -1 -8l-109 -624q123 13 258 13q159 0 272.5 -39t172 -116t58.5 -190q0 -96 -46.5 -234.5t-193.5 -225t-421 -86.5q-123 0 -220.5 8.5t-106.5 15t-9 31.5zM330 80q172 -12 254 -12q235 0 358 73.5t161.5 194
t38.5 197.5q0 131 -102 196.5t-327 65.5q-86 0 -258 -13z" />
    <glyph glyph-name="afii10044" unicode="&#x42a;" horiz-adv-x="1249" 
d="M479 1438h-248q-34 0 -34 24q0 60 51 60h295q36 0 36 -26q0 -4 -1 -8l-109 -624q123 13 258 13q159 0 272.5 -39t172 -116t58.5 -190q0 -96 -46.5 -234.5t-193.5 -225t-421 -86.5q-123 0 -220.5 8.5t-106.5 15t-9 31.5zM330 80q172 -12 254 -12q235 0 358 73.5t161.5 194
t38.5 197.5q0 131 -102 196.5t-327 65.5q-86 0 -258 -13z" />
    <glyph glyph-name="afii10045" unicode="&#xdb;" horiz-adv-x="1614" 
d="M664 877q503 0 503 -336q0 -109 -49.5 -246.5t-197.5 -223t-414 -85.5q-123 0 -220.5 8.5t-106.5 15t-9 31.5l254 1442q7 39 41 39h18q33 0 33 -26q0 -4 -29 -169l-81 -463q123 13 258 13zM266 80q173 -12 254 -12q234 0 357 71.5t162.5 196t39.5 196.5
q0 132 -102.5 197.5t-327.5 65.5q-86 0 -258 -13zM1456 39q-7 -39 -41 -39h-16q-21 0 -27 9t-6 30l254 1444q8 39 47 39h10q22 0 27.5 -8.5t5.5 -30.5z" />
    <glyph glyph-name="afii10045" unicode="&#x42b;" horiz-adv-x="1614" 
d="M664 877q503 0 503 -336q0 -109 -49.5 -246.5t-197.5 -223t-414 -85.5q-123 0 -220.5 8.5t-106.5 15t-9 31.5l254 1442q7 39 41 39h18q33 0 33 -26q0 -4 -29 -169l-81 -463q123 13 258 13zM266 80q173 -12 254 -12q234 0 357 71.5t162.5 196t39.5 196.5
q0 132 -102.5 197.5t-327.5 65.5q-86 0 -258 -13zM1456 39q-7 -39 -41 -39h-16q-21 0 -27 9t-6 30l254 1444q8 39 47 39h10q22 0 27.5 -8.5t5.5 -30.5z" />
    <glyph glyph-name="afii10046" unicode="&#xdc;" 
d="M664 877q503 0 503 -336q0 -109 -49.5 -246.5t-197.5 -223t-414 -85.5q-123 0 -220.5 8.5t-106.5 15t-9 31.5l254 1442q7 39 41 39h18q33 0 33 -26q0 -4 -29 -169l-81 -463q123 13 258 13zM266 80q173 -12 254 -12q234 0 357 71.5t162.5 196t39.5 196.5
q0 132 -102.5 197.5t-327.5 65.5q-86 0 -258 -13z" />
    <glyph glyph-name="afii10046" unicode="&#x42c;" 
d="M664 877q503 0 503 -336q0 -109 -49.5 -246.5t-197.5 -223t-414 -85.5q-123 0 -220.5 8.5t-106.5 15t-9 31.5l254 1442q7 39 41 39h18q33 0 33 -26q0 -4 -29 -169l-81 -463q123 13 258 13zM266 80q173 -12 254 -12q234 0 357 71.5t162.5 196t39.5 196.5
q0 132 -102.5 197.5t-327.5 65.5q-86 0 -258 -13z" />
    <glyph glyph-name="afii10047" unicode="&#xdd;" horiz-adv-x="1114" 
d="M991 745h-622q-33 0 -33 30q0 37 10 48t37 11h623q26 144 26 239q0 205 -93 285t-261 80q-94 0 -171 -10l-122 -16q-24 0 -24 24q0 39 15 49t109 23.5t209 13.5q428 0 428 -447q0 -123 -58.5 -430t-159 -438t-215.5 -176t-267 -45q-90 0 -186 11t-107.5 19.5t-11.5 34.5
v8q0 22 10 28.5t37 6.5q144 -24 272 -24q237 0 360.5 142t178.5 443z" />
    <glyph glyph-name="afii10047" unicode="&#x42d;" horiz-adv-x="1114" 
d="M991 745h-622q-33 0 -33 30q0 37 10 48t37 11h623q26 144 26 239q0 205 -93 285t-261 80q-94 0 -171 -10l-122 -16q-24 0 -24 24q0 39 15 49t109 23.5t209 13.5q428 0 428 -447q0 -123 -58.5 -430t-159 -438t-215.5 -176t-267 -45q-90 0 -186 11t-107.5 19.5t-11.5 34.5
v8q0 22 10 28.5t37 6.5q144 -24 272 -24q237 0 360.5 142t178.5 443z" />
    <glyph glyph-name="afii10048" unicode="&#xde;" horiz-adv-x="1784" 
d="M281 39q-7 -39 -41 -39h-21q-19 0 -24 8t-5 31l254 1444q8 39 43 39h21q28 0 28 -27q0 -5 -30 -178l-90 -514h338q50 323 154.5 469t226 203t258.5 57q215 0 327.5 -116.5t112.5 -342.5q0 -123 -67 -460t-230.5 -481t-402.5 -144q-207 0 -317.5 115.5t-110.5 336.5
q0 91 32 279h-338zM1149 74q111 0 204.5 39t167.5 127t109 195.5t75 331.5t40 304q0 375 -354 375q-94 0 -175.5 -29t-151 -92t-125.5 -173t-86 -281l-45 -257q-15 -85 -15 -174q0 -366 356 -366z" />
    <glyph glyph-name="afii10048" unicode="&#x42e;" horiz-adv-x="1784" 
d="M281 39q-7 -39 -41 -39h-21q-19 0 -24 8t-5 31l254 1444q8 39 43 39h21q28 0 28 -27q0 -5 -30 -178l-90 -514h338q50 323 154.5 469t226 203t258.5 57q215 0 327.5 -116.5t112.5 -342.5q0 -123 -67 -460t-230.5 -481t-402.5 -144q-207 0 -317.5 115.5t-110.5 336.5
q0 91 32 279h-338zM1149 74q111 0 204.5 39t167.5 127t109 195.5t75 331.5t40 304q0 375 -354 375q-94 0 -175.5 -29t-151 -92t-125.5 -173t-86 -281l-45 -257q-15 -85 -15 -174q0 -366 356 -366z" />
    <glyph glyph-name="afii10049" unicode="&#xdf;" horiz-adv-x="1255" 
d="M195 0h-22q-30 0 -30 26q0 17 13 33l525 637q-303 52 -303 316q0 101 46.5 232t184 209.5t410.5 78.5q89 0 202.5 -4t126 -7.5t15 -9t2.5 -28.5l-254 -1444q-7 -39 -41 -39h-21q-29 0 -29 31q0 3 30 174l85 483q-189 -2 -264 -2h-88l-555 -668q-15 -18 -33 -18zM1150 772
l116 666q-83 8 -262 8q-320 0 -428 -124.5t-108 -309.5q0 -130 92.5 -185t324.5 -55h265z" />
    <glyph glyph-name="afii10049" unicode="&#x42f;" horiz-adv-x="1255" 
d="M195 0h-22q-30 0 -30 26q0 17 13 33l525 637q-303 52 -303 316q0 101 46.5 232t184 209.5t410.5 78.5q89 0 202.5 -4t126 -7.5t15 -9t2.5 -28.5l-254 -1444q-7 -39 -41 -39h-21q-29 0 -29 31q0 3 30 174l85 483q-189 -2 -264 -2h-88l-555 -668q-15 -18 -33 -18zM1150 772
l116 666q-83 8 -262 8q-320 0 -428 -124.5t-108 -309.5q0 -130 92.5 -185t324.5 -55h265z" />
    <glyph glyph-name="afii10065" unicode="&#xe0;" horiz-adv-x="999" 
d="M862 41q-7 -41 -47 -41h-10q-36 0 -36 32q0 4 9 60q-205 -104 -366 -104q-122 0 -191 66t-69 192q0 227 129.5 320t441.5 93h158q26 131 26 191q0 97 -50.5 138.5t-168.5 41.5q-99 0 -178 -7l-130 -12q-29 0 -29 23q0 34 17.5 45t113.5 21t220 10q293 0 293 -266
q0 -53 -10 -111zM795 172l71 408h-157q-234 0 -329 -50t-117.5 -140.5t-22.5 -147.5q0 -174 186 -174q160 0 369 104z" />
    <glyph glyph-name="afii10065" unicode="&#x430;" horiz-adv-x="999" 
d="M862 41q-7 -41 -47 -41h-10q-36 0 -36 32q0 4 9 60q-205 -104 -366 -104q-122 0 -191 66t-69 192q0 227 129.5 320t441.5 93h158q26 131 26 191q0 97 -50.5 138.5t-168.5 41.5q-99 0 -178 -7l-130 -12q-29 0 -29 23q0 34 17.5 45t113.5 21t220 10q293 0 293 -266
q0 -53 -10 -111zM795 172l71 408h-157q-234 0 -329 -50t-117.5 -140.5t-22.5 -147.5q0 -174 186 -174q160 0 369 104z" />
    <glyph glyph-name="afii10066" unicode="&#xe1;" horiz-adv-x="1116" 
d="M1038 473q-40 -236 -170.5 -360.5t-337.5 -124.5q-346 0 -346 354q0 71 42.5 310t73 332.5t94 169.5t154 120t220.5 69q175 34 222.5 51t80 47.5t47.5 65.5q15 33 45 33h23q25 0 25 -19t-20 -56.5t-56 -71t-90.5 -59t-130.5 -40.5l-144 -28q-178 -35 -262 -106t-127 -197
q135 135 346 135q346 0 346 -350q0 -72 -12 -144zM545 68q156 0 258 95t143 295.5t41 293.5q0 266 -274 266q-156 0 -260 -91.5t-142.5 -304.5t-38.5 -282q0 -272 273 -272z" />
    <glyph glyph-name="afii10066" unicode="&#x431;" horiz-adv-x="1116" 
d="M1038 473q-40 -236 -170.5 -360.5t-337.5 -124.5q-346 0 -346 354q0 71 42.5 310t73 332.5t94 169.5t154 120t220.5 69q175 34 222.5 51t80 47.5t47.5 65.5q15 33 45 33h23q25 0 25 -19t-20 -56.5t-56 -71t-90.5 -59t-130.5 -40.5l-144 -28q-178 -35 -262 -106t-127 -197
q135 135 346 135q346 0 346 -350q0 -72 -12 -144zM545 68q156 0 258 95t143 295.5t41 293.5q0 266 -274 266q-156 0 -260 -91.5t-142.5 -304.5t-38.5 -282q0 -272 273 -272z" />
    <glyph glyph-name="afii10067" unicode="&#xe2;" horiz-adv-x="1059" 
d="M1073 811q-13 -80 -66 -144.5t-137 -95.5q134 -54 134 -204q0 -177 -122 -279t-436 -102q-98 0 -189 5t-101.5 9.5t-10.5 15.5l187 1063q2 11 15 16t105.5 10t192.5 5q226 0 330 -58.5t104 -174.5q0 -29 -4 -54zM338 610h293q111 0 184.5 15.5t124.5 78.5t51 170
q0 81 -74.5 118.5t-285.5 37.5q-64 0 -219 -6zM242 70q139 -7 219 -7q238 0 345 71t107 237q0 74 -55 115.5t-242 41.5h-292z" />
    <glyph glyph-name="afii10067" unicode="&#x432;" horiz-adv-x="1059" 
d="M1073 811q-13 -80 -66 -144.5t-137 -95.5q134 -54 134 -204q0 -177 -122 -279t-436 -102q-98 0 -189 5t-101.5 9.5t-10.5 15.5l187 1063q2 11 15 16t105.5 10t192.5 5q226 0 330 -58.5t104 -174.5q0 -29 -4 -54zM338 610h293q111 0 184.5 15.5t124.5 78.5t51 170
q0 81 -74.5 118.5t-285.5 37.5q-64 0 -219 -6zM242 70q139 -7 219 -7q238 0 345 71t107 237q0 74 -55 115.5t-242 41.5h-292z" />
    <glyph glyph-name="afii10068" unicode="&#xe3;" horiz-adv-x="760" 
d="M807 1016h-272q-65 0 -98.5 -26.5t-45.5 -94.5l-151 -856q-7 -39 -41 -39h-21q-28 0 -28 39l151 856q18 102 73 153.5t175 51.5h272q34 0 34 -25q0 -30 -9.5 -44.5t-38.5 -14.5z" />
    <glyph glyph-name="afii10068" unicode="&#x433;" horiz-adv-x="760" 
d="M807 1016h-272q-65 0 -98.5 -26.5t-45.5 -94.5l-151 -856q-7 -39 -41 -39h-21q-28 0 -28 39l151 856q18 102 73 153.5t175 51.5h272q34 0 34 -25q0 -30 -9.5 -44.5t-38.5 -14.5z" />
    <glyph glyph-name="afii10069" unicode="&#xe4;" horiz-adv-x="1194" 
d="M128 82h63l453 944q47 100 145 100q107 0 119 -98l121 -946h68q34 0 34 -28q0 -6 -14 -86l-26 -147q-12 -67 -16.5 -76.5t-15 -16.5t-26.5 -7h-8q-36 0 -36 33q0 4 44 246h-870l-43 -238q-4 -21 -16.5 -31t-30.5 -10h-9q-35 0 -35 33q0 4 14 86l26 146q11 64 15.5 73.5
t15 16t28.5 6.5zM726 1006l-438 -924h647l-115 922q-4 40 -41 40q-35 0 -53 -38z" />
    <glyph glyph-name="afii10069" unicode="&#x434;" horiz-adv-x="1194" 
d="M128 82h63l453 944q47 100 145 100q107 0 119 -98l121 -946h68q34 0 34 -28q0 -6 -14 -86l-26 -147q-12 -67 -16.5 -76.5t-15 -16.5t-26.5 -7h-8q-36 0 -36 33q0 4 44 246h-870l-43 -238q-4 -21 -16.5 -31t-30.5 -10h-9q-35 0 -35 33q0 4 14 86l26 146q11 64 15.5 73.5
t15 16t28.5 6.5zM726 1006l-438 -924h647l-115 922q-4 40 -41 40q-35 0 -53 -38z" />
    <glyph glyph-name="afii10070" unicode="&#xe5;" horiz-adv-x="1047" 
d="M1032 567q-7 -39 -45 -39h-692q-21 -100 -21 -180q0 -158 81.5 -219t228.5 -61q135 0 309 34q11 2 18 2q21 0 21 -20q0 -36 -15 -48t-130.5 -30t-208.5 -18q-396 0 -396 358q0 103 50.5 321.5t176.5 330.5t302 112q168 0 256 -90t88 -260q0 -71 -13 -137zM950 610
q17 99 17 156q0 264 -260 264q-314 0 -398 -420h641z" />
    <glyph glyph-name="afii10070" unicode="&#x435;" horiz-adv-x="1047" 
d="M1032 567q-7 -39 -45 -39h-692q-21 -100 -21 -180q0 -158 81.5 -219t228.5 -61q135 0 309 34q11 2 18 2q21 0 21 -20q0 -36 -15 -48t-130.5 -30t-208.5 -18q-396 0 -396 358q0 103 50.5 321.5t176.5 330.5t302 112q168 0 256 -90t88 -260q0 -71 -13 -137zM950 610
q17 99 17 156q0 264 -260 264q-314 0 -398 -420h641z" />
    <glyph glyph-name="afii10072" unicode="&#xe6;" horiz-adv-x="1442" 
d="M784 621l50 281q29 161 31.5 170t13.5 18.5t28 9.5h13q33 0 33 -31q0 -3 -79 -448l586 471q23 18 56 18q32 0 32 -35q0 -25 -20 -41l-582 -459l405 -524q11 -14 11 -33q0 -11 -12 -20.5t-31 -9.5q-20 0 -32.5 5t-71.5 83l-355 467l-56 -320q-32 -185 -34.5 -194
t-13.5 -19t-29 -10h-12q-34 0 -34 30q0 4 23 132l66 381l-588 -531q-29 -24 -67 -24q-35 0 -35 30q0 17 22 37l598 533l-285 310q-134 145 -139 153.5t-5 18.5q0 17 14 28.5t32 11.5q29 0 50 -23z" />
    <glyph glyph-name="afii10072" unicode="&#x436;" horiz-adv-x="1442" 
d="M784 621l50 281q29 161 31.5 170t13.5 18.5t28 9.5h13q33 0 33 -31q0 -3 -79 -448l586 471q23 18 56 18q32 0 32 -35q0 -25 -20 -41l-582 -459l405 -524q11 -14 11 -33q0 -11 -12 -20.5t-31 -9.5q-20 0 -32.5 5t-71.5 83l-355 467l-56 -320q-32 -185 -34.5 -194
t-13.5 -19t-29 -10h-12q-34 0 -34 30q0 4 23 132l66 381l-588 -531q-29 -24 -67 -24q-35 0 -35 30q0 17 22 37l598 533l-285 310q-134 145 -139 153.5t-5 18.5q0 17 14 28.5t32 11.5q29 0 50 -23z" />
    <glyph glyph-name="afii10073" unicode="&#xe7;" horiz-adv-x="1036" 
d="M670 612q299 0 299 283q0 87 -65.5 120.5t-227.5 33.5q-116 0 -283 -21q-21 0 -27.5 3.5t-6.5 14.5q0 15 7 30.5t26 21.5t115 15t183 9q181 0 274 -51t93 -176q0 -221 -201 -320q115 -53 115 -194q0 -191 -126 -293t-356 -102q-95 0 -187 10t-107 15.5t-15 18.5
q0 51 35 51l122 -14q72 -8 165 -8h2q377 0 377 324q0 73 -50 114.5t-141 41.5h-371q-33 0 -33 25q0 30 11.5 39t34.5 9h338z" />
    <glyph glyph-name="afii10073" unicode="&#x437;" horiz-adv-x="1036" 
d="M670 612q299 0 299 283q0 87 -65.5 120.5t-227.5 33.5q-116 0 -283 -21q-21 0 -27.5 3.5t-6.5 14.5q0 15 7 30.5t26 21.5t115 15t183 9q181 0 274 -51t93 -176q0 -221 -201 -320q115 -53 115 -194q0 -191 -126 -293t-356 -102q-95 0 -187 10t-107 15.5t-15 18.5
q0 51 35 51l122 -14q72 -8 165 -8h2q377 0 377 324q0 73 -50 114.5t-141 41.5h-371q-33 0 -33 25q0 30 11.5 39t34.5 9h338z" />
    <glyph glyph-name="afii10074" unicode="&#xe8;" horiz-adv-x="1067" 
d="M930 41q-7 -41 -43 -41h-17q-31 0 -31 31q0 6 7 43q-193 -84 -336 -84q-307 0 -307 297q0 65 9 116l117 658q3 17 14.5 28t31.5 11h14q19 0 25 -9t6 -30l-88 -496q-37 -206 -39 -229.5t-2 -46.5q0 -219 225 -219q150 0 344 84l160 907q8 39 45 39h12q21 0 27 -9t6 -30z
" />
    <glyph glyph-name="afii10074" unicode="&#x438;" horiz-adv-x="1067" 
d="M930 41q-7 -41 -43 -41h-17q-31 0 -31 31q0 6 7 43q-193 -84 -336 -84q-307 0 -307 297q0 65 9 116l117 658q3 17 14.5 28t31.5 11h14q19 0 25 -9t6 -30l-88 -496q-37 -206 -39 -229.5t-2 -46.5q0 -219 225 -219q150 0 344 84l160 907q8 39 45 39h12q21 0 27 -9t6 -30z
" />
    <glyph glyph-name="afii10075" unicode="&#xe9;" horiz-adv-x="1067" 
d="M1069 1593q26 0 26 -20q0 -32 -31.5 -112.5t-111.5 -137.5t-192 -57q-110 0 -183 67.5t-73 171.5q0 56 7.5 72t37.5 16h16q24 0 30 -8q1 -2 1 -26q-4 -25 -4 -50q0 -78 49.5 -118.5t122.5 -40.5q205 0 242 209q3 22 9 28t25 6h29zM930 41q-7 -41 -43 -41h-17
q-32 0 -32 28q0 5 8 46q-193 -84 -336 -84q-307 0 -307 297q0 65 9 116l117 658q3 17 14.5 28t31.5 11h14q21 0 26 -7.5t5 -31.5l-88 -496q-37 -206 -39 -229.5t-2 -46.5q0 -219 225 -219q150 0 344 84l160 907q8 39 45 39h12q21 0 27 -8t6 -31z" />
    <glyph glyph-name="afii10075" unicode="&#x439;" horiz-adv-x="1067" 
d="M1069 1593q26 0 26 -20q0 -32 -31.5 -112.5t-111.5 -137.5t-192 -57q-110 0 -183 67.5t-73 171.5q0 56 7.5 72t37.5 16h16q24 0 30 -8q1 -2 1 -26q-4 -25 -4 -50q0 -78 49.5 -118.5t122.5 -40.5q205 0 242 209q3 22 9 28t25 6h29zM930 41q-7 -41 -43 -41h-17
q-32 0 -32 28q0 5 8 46q-193 -84 -336 -84q-307 0 -307 297q0 65 9 116l117 658q3 17 14.5 28t31.5 11h14q21 0 26 -7.5t5 -31.5l-88 -496q-37 -206 -39 -229.5t-2 -46.5q0 -219 225 -219q150 0 344 84l160 907q8 39 45 39h12q21 0 27 -8t6 -31z" />
    <glyph glyph-name="afii10076" unicode="&#xea;" horiz-adv-x="909" 
d="M414 584l276 -359q137 -178 139.5 -183.5t2.5 -13.5q0 -40 -46 -40q-20 0 -32 5t-72 83l-354 467l-56 -321q-33 -185 -35.5 -193t-15 -18.5t-26.5 -10.5h-13q-32 0 -32 39l180 1022q3 15 16.5 27t28.5 12h12q33 0 33 -33q0 -3 -78 -446l586 471q21 18 53 18q35 0 35 -33
q0 -18 -21 -35z" />
    <glyph glyph-name="afii10076" unicode="&#x43a;" horiz-adv-x="909" 
d="M414 584l276 -359q137 -178 139.5 -183.5t2.5 -13.5q0 -40 -46 -40q-20 0 -32 5t-72 83l-354 467l-56 -321q-33 -185 -35.5 -193t-15 -18.5t-26.5 -10.5h-13q-32 0 -32 39l180 1022q3 15 16.5 27t28.5 12h12q33 0 33 -33q0 -3 -78 -446l586 471q21 18 53 18q35 0 35 -33
q0 -18 -21 -35z" />
    <glyph glyph-name="afii10077" unicode="&#xeb;" horiz-adv-x="1024" 
d="M858 27l-123 977q-4 40 -41 40q-34 0 -53 -38l-467 -979q-13 -27 -37 -27h-28q-27 0 -27 27q0 3 2 12q1 5 4 12l469 975q47 100 150 100q102 0 114 -98l125 -977q0 -26 -6 -38.5t-31 -12.5h-22q-26 0 -29 27z" />
    <glyph glyph-name="afii10077" unicode="&#x43b;" horiz-adv-x="1024" 
d="M858 27l-123 977q-4 40 -41 40q-34 0 -53 -38l-467 -979q-13 -27 -37 -27h-28q-27 0 -27 27q0 3 2 12q1 5 4 12l469 975q47 100 150 100q102 0 114 -98l125 -977q0 -26 -6 -38.5t-31 -12.5h-22q-26 0 -29 27z" />
    <glyph glyph-name="afii10078" unicode="&#xec;" horiz-adv-x="1290" 
d="M1323 1004l-172 -979q-8 -39 -47 -39h-12q-20 0 -25.5 8.5t-5.5 30.5l172 979v21q-3 7 -10 7t-14 -6.5t-59 -75.5l-302 -403q-50 -68 -115 -68q-62 0 -90 68l-129 320q-59 148 -66.5 156.5t-17.5 8.5q-15 0 -20 -28l-172 -979q-8 -39 -48 -39h-12q-19 0 -25 8.5t-6 30.5
l172 979q20 110 117 110q73 0 99 -67l182 -453q10 -27 26 -27q14 0 22.5 8t117.5 153l241 321q50 65 115 65q87 0 87 -78q0 -15 -3 -32z" />
    <glyph glyph-name="afii10078" unicode="&#x43c;" horiz-adv-x="1290" 
d="M1323 1004l-172 -979q-8 -39 -47 -39h-12q-20 0 -25.5 8.5t-5.5 30.5l172 979v21q-3 7 -10 7t-14 -6.5t-59 -75.5l-302 -403q-50 -68 -115 -68q-62 0 -90 68l-129 320q-59 148 -66.5 156.5t-17.5 8.5q-15 0 -20 -28l-172 -979q-8 -39 -48 -39h-12q-19 0 -25 8.5t-6 30.5
l172 979q20 110 117 110q73 0 99 -67l182 -453q10 -27 26 -27q14 0 22.5 8t117.5 153l241 321q50 65 115 65q87 0 87 -78q0 -15 -3 -32z" />
    <glyph glyph-name="afii10079" unicode="&#xed;" horiz-adv-x="1067" 
d="M928 545h-600l-56 -321q-33 -186 -35 -195t-13 -19t-29 -10h-13q-32 0 -32 39l186 1057q8 39 45 39h12q34 0 34 -29q0 -4 -21 -124l-62 -353h600l52 298q30 170 32.5 180t12 19t30.5 9h12q21 0 27 -9t6 -30l-186 -1057q-8 -39 -45 -39h-13q-32 0 -32 39z" />
    <glyph glyph-name="afii10079" unicode="&#x43d;" horiz-adv-x="1067" 
d="M928 545h-600l-56 -321q-33 -186 -35 -195t-13 -19t-29 -10h-13q-32 0 -32 39l186 1057q8 39 45 39h12q34 0 34 -29q0 -4 -21 -124l-62 -353h600l52 298q30 170 32.5 180t12 19t30.5 9h12q21 0 27 -9t6 -30l-186 -1057q-8 -39 -45 -39h-13q-32 0 -32 39z" />
    <glyph glyph-name="afii10080" unicode="&#xee;" horiz-adv-x="1069" 
d="M1038 461q-39 -232 -168.5 -352.5t-339.5 -120.5q-168 0 -257 92t-89 266q0 92 44.5 316.5t172.5 336t328 111.5q169 0 258.5 -93.5t89.5 -266.5q0 -62 -14 -146zM545 68q162 0 260.5 88.5t140 297.5t41.5 302q0 274 -272 274q-158 0 -259.5 -93.5t-142.5 -308
t-41 -288.5q0 -272 273 -272z" />
    <glyph glyph-name="afii10080" unicode="&#x43e;" horiz-adv-x="1069" 
d="M1038 461q-39 -232 -168.5 -352.5t-339.5 -120.5q-168 0 -257 92t-89 266q0 92 44.5 316.5t172.5 336t328 111.5q169 0 258.5 -93.5t89.5 -266.5q0 -62 -14 -146zM545 68q162 0 260.5 88.5t140 297.5t41.5 302q0 274 -272 274q-158 0 -259.5 -93.5t-142.5 -308
t-41 -288.5q0 -272 273 -272z" />
    <glyph glyph-name="afii10081" unicode="&#xef;" horiz-adv-x="1067" 
d="M840 39l151 856q4 33 4 43q0 43 -25.5 60.5t-82.5 17.5h-352q-65 0 -98.5 -26.5t-45.5 -94.5l-151 -856q-8 -39 -41 -39h-21q-18 0 -23 9t-5 30l151 856q18 101 75.5 153t172.5 52h350q186 0 186 -154q0 -28 -4 -51l-151 -856q-8 -39 -41 -39h-21q-28 0 -28 39z" />
    <glyph glyph-name="afii10081" unicode="&#x43f;" horiz-adv-x="1067" 
d="M840 39l151 856q4 33 4 43q0 43 -25.5 60.5t-82.5 17.5h-352q-65 0 -98.5 -26.5t-45.5 -94.5l-151 -856q-8 -39 -41 -39h-21q-18 0 -23 9t-5 30l151 856q18 101 75.5 153t172.5 52h350q186 0 186 -154q0 -28 -4 -51l-151 -856q-8 -39 -41 -39h-21q-28 0 -28 39z" />
    <glyph glyph-name="afii10082" unicode="&#xf0;" horiz-adv-x="1032" 
d="M1001 465q-79 -477 -487 -477q-139 0 -278 30l-44 -243q-24 -138 -27 -147t-12 -18t-26 -9h-21q-17 0 -22.5 8.5t-5.5 30.5l246 1392q4 24 20 33t141 27t228 18q325 0 325 -357q0 -70 -14 -153zM250 94q127 -26 278 -26q153 0 247 89t135 303t41 305q0 265 -253 265
q-122 0 -288 -26z" />
    <glyph glyph-name="afii10082" unicode="&#x440;" horiz-adv-x="1032" 
d="M1001 465q-79 -477 -487 -477q-139 0 -278 30l-44 -243q-24 -138 -27 -147t-12 -18t-26 -9h-21q-17 0 -22.5 8.5t-5.5 30.5l246 1392q4 24 20 33t141 27t228 18q325 0 325 -357q0 -70 -14 -153zM250 94q127 -26 278 -26q153 0 247 89t135 303t41 305q0 265 -253 265
q-122 0 -288 -26z" />
    <glyph glyph-name="afii10083" unicode="&#xf1;" horiz-adv-x="895" 
d="M811 43q-3 -20 -16.5 -28t-113 -17.5t-167.5 -9.5q-160 0 -244 95t-84 269q0 97 39 287t110 287.5t167 140.5t211 43q57 0 160 -9.5t110 -17t7 -17.5q0 -19 -4.5 -34t-11.5 -17.5t-34 -2.5q-170 18 -242 18q-151 0 -246 -92t-137.5 -302t-42.5 -296q0 -272 256 -272
q58 0 133 7l124 11q28 0 28 -29z" />
    <glyph glyph-name="afii10083" unicode="&#x441;" horiz-adv-x="895" 
d="M811 43q-3 -20 -16.5 -28t-113 -17.5t-167.5 -9.5q-160 0 -244 95t-84 269q0 97 39 287t110 287.5t167 140.5t211 43q57 0 160 -9.5t110 -17t7 -17.5q0 -19 -4.5 -34t-11.5 -17.5t-34 -2.5q-170 18 -242 18q-151 0 -246 -92t-137.5 -302t-42.5 -296q0 -272 256 -272
q58 0 133 7l124 11q28 0 28 -29z" />
    <glyph glyph-name="afii10084" unicode="&#xf2;" horiz-adv-x="999" 
d="M1071 1100q33 0 33 -28q0 -34 -10 -45t-37 -11h-334l-172 -977q-7 -39 -45 -39h-12q-33 0 -33 39l172 977h-334q-33 0 -33 25q0 59 47 59h758z" />
    <glyph glyph-name="afii10084" unicode="&#x442;" horiz-adv-x="999" 
d="M1071 1100q33 0 33 -28q0 -34 -10 -45t-37 -11h-334l-172 -977q-7 -39 -45 -39h-12q-33 0 -33 39l172 977h-334q-33 0 -33 25q0 59 47 59h758z" />
    <glyph glyph-name="afii10085" unicode="&#xf3;" horiz-adv-x="995" 
d="M1063 1100h10q32 0 32 -25q0 -12 -7 -26l-541 -1164q-76 -162 -156 -223t-227 -61q-40 0 -92.5 7t-59 15t-6.5 20q0 32 10.5 41t39.5 9q61 -12 131 -12q84 0 133.5 24.5t83 76.5t110.5 218h-28q-63 0 -81.5 29t-25.5 86l-110 936q0 31 9 40t31 9h9q35 0 39 -29l110 -942
q4 -45 39 -45h47l455 989q12 27 45 27z" />
    <glyph glyph-name="afii10085" unicode="&#x443;" horiz-adv-x="995" 
d="M1063 1100h10q32 0 32 -25q0 -12 -7 -26l-541 -1164q-76 -162 -156 -223t-227 -61q-40 0 -92.5 7t-59 15t-6.5 20q0 32 10.5 41t39.5 9q61 -12 131 -12q84 0 133.5 24.5t83 76.5t110.5 218h-28q-63 0 -81.5 29t-25.5 86l-110 936q0 31 9 40t31 9h9q35 0 39 -29l110 -942
q4 -45 39 -45h47l455 989q12 27 45 27z" />
    <glyph glyph-name="afii10086" unicode="&#xf4;" horiz-adv-x="1589" 
d="M752 18q-139 -30 -242 -30q-168 0 -249 78t-81 243q0 93 46 341.5t163 354t320 105.5q102 0 231 -27l45 258q25 144 27.5 153.5t13.5 18.5t33 9h10q32 0 32 -27q0 -5 -71 -412q136 27 240 27q166 0 246.5 -77.5t80.5 -244.5q0 -79 -33 -279t-87.5 -306t-154 -160.5
t-251.5 -54.5q-99 0 -229 30l-44 -246q-25 -137 -28 -147.5t-12.5 -17t-24.5 -6.5h-20q-30 0 -30 27q0 5 69 390zM856 94q119 -26 229 -26q157 0 248 80t134.5 314.5t43.5 328.5q0 120 -57.5 179.5t-198.5 59.5q-78 0 -239 -26zM926 1004q-153 26 -232 26q-160 0 -250 -83.5
t-133 -323t-43 -320.5q0 -127 61 -181t195 -54q109 0 242 26z" />
    <glyph glyph-name="afii10086" unicode="&#x444;" horiz-adv-x="1589" 
d="M752 18q-139 -30 -242 -30q-168 0 -249 78t-81 243q0 93 46 341.5t163 354t320 105.5q102 0 231 -27l45 258q25 144 27.5 153.5t13.5 18.5t33 9h10q32 0 32 -27q0 -5 -71 -412q136 27 240 27q166 0 246.5 -77.5t80.5 -244.5q0 -79 -33 -279t-87.5 -306t-154 -160.5
t-251.5 -54.5q-99 0 -229 30l-44 -246q-25 -137 -28 -147.5t-12.5 -17t-24.5 -6.5h-20q-30 0 -30 27q0 5 69 390zM856 94q119 -26 229 -26q157 0 248 80t134.5 314.5t43.5 328.5q0 120 -57.5 179.5t-198.5 59.5q-78 0 -239 -26zM926 1004q-153 26 -232 26q-160 0 -250 -83.5
t-133 -323t-43 -320.5q0 -127 61 -181t195 -54q109 0 242 26z" />
    <glyph glyph-name="afii10087" unicode="&#xf5;" horiz-adv-x="1010" 
d="M891 0q-27 0 -33 10l-260 482l-280 -319q-141 -160 -149.5 -166.5t-25.5 -6.5h-26q-27 0 -27 20q0 15 15 32l452 511l-178 331q-84 155 -86.5 163t-2.5 16q0 27 29 27h19q18 0 27 -8.5t90 -157.5l163 -301l273 311q126 144 135.5 150t26.5 6h16q33 0 33 -21
q0 -10 -7 -21.5t-140 -164.5l-293 -334l181 -338q92 -173 94.5 -178.5t2.5 -11.5q0 -31 -37 -31h-12z" />
    <glyph glyph-name="afii10087" unicode="&#x445;" horiz-adv-x="1010" 
d="M891 0q-27 0 -33 10l-260 482l-280 -319q-141 -160 -149.5 -166.5t-25.5 -6.5h-26q-27 0 -27 20q0 15 15 32l452 511l-178 331q-84 155 -86.5 163t-2.5 16q0 27 29 27h19q18 0 27 -8.5t90 -157.5l163 -301l273 311q126 144 135.5 150t26.5 6h16q33 0 33 -21
q0 -10 -7 -21.5t-140 -164.5l-293 -334l181 -338q92 -173 94.5 -178.5t2.5 -11.5q0 -31 -37 -31h-12z" />
    <glyph glyph-name="afii10088" unicode="&#xf6;" horiz-adv-x="1067" 
d="M1020 1061q7 39 41 39h20q20 0 27 -10q2 -4 2 -29l-152 -856q-14 -80 -47 -121h121q59 0 59 -43q0 -9 -24 -147t-31.5 -152t-31.5 -14h-19q-30 0 -30 28q0 4 44 244h-632q-191 0 -191 162q0 35 4 55l150 844q7 39 41 39h20q19 0 24 -8t5 -31l-152 -856q-4 -23 -4 -39
q0 -82 107 -82h352q66 0 100 27t45 94z" />
    <glyph glyph-name="afii10088" unicode="&#x446;" horiz-adv-x="1067" 
d="M1020 1061q7 39 41 39h20q20 0 27 -10q2 -4 2 -29l-152 -856q-14 -80 -47 -121h121q59 0 59 -43q0 -9 -24 -147t-31.5 -152t-31.5 -14h-19q-30 0 -30 28q0 4 44 244h-632q-191 0 -191 162q0 35 4 55l150 844q7 39 41 39h20q19 0 24 -8t5 -31l-152 -856q-4 -23 -4 -39
q0 -82 107 -82h352q66 0 100 27t45 94z" />
    <glyph glyph-name="afii10089" unicode="&#xf7;" horiz-adv-x="1024" 
d="M334 1087q7 39 41 39h20q28 0 28 -27q0 -5 -52 -306q-11 -58 -11 -97q0 -217 258 -217q145 0 283 37l64 363q37 210 39 219.5t10.5 18.5t27.5 9h21q19 0 24 -8t5 -31l-187 -1060q-8 -39 -43 -39h-20q-28 0 -28 28q0 4 73 420q-154 -37 -283 -37q-330 0 -330 293
q0 49 13 121z" />
    <glyph glyph-name="afii10089" unicode="&#x447;" horiz-adv-x="1024" 
d="M334 1087q7 39 41 39h20q28 0 28 -27q0 -5 -52 -306q-11 -58 -11 -97q0 -217 258 -217q145 0 283 37l64 363q37 210 39 219.5t10.5 18.5t27.5 9h21q19 0 24 -8t5 -31l-187 -1060q-8 -39 -43 -39h-20q-28 0 -28 28q0 4 73 420q-154 -37 -283 -37q-330 0 -330 293
q0 49 13 121z" />
    <glyph glyph-name="afii10090" unicode="&#xf8;" horiz-adv-x="1593" 
d="M1546 1061q7 39 41 39h21q19 0 23.5 -7.5t4.5 -31.5l-151 -856q-19 -105 -72.5 -155t-179.5 -50h-858q-199 0 -199 162q0 28 6 65l148 834q7 39 41 39h20q20 0 24.5 -7.5t4.5 -31.5l-152 -856q-4 -23 -4 -39q0 -82 107 -82h395l172 977q7 39 45 39h12q22 0 27.5 -8
t5.5 -31l-172 -977h393q66 0 100 27t46 94z" />
    <glyph glyph-name="afii10090" unicode="&#x448;" horiz-adv-x="1593" 
d="M1546 1061q7 39 41 39h21q19 0 23.5 -7.5t4.5 -31.5l-151 -856q-19 -105 -72.5 -155t-179.5 -50h-858q-199 0 -199 162q0 28 6 65l148 834q7 39 41 39h20q20 0 24.5 -7.5t4.5 -31.5l-152 -856q-4 -23 -4 -39q0 -82 107 -82h395l172 977q7 39 45 39h12q22 0 27.5 -8
t5.5 -31l-172 -977h393q66 0 100 27t46 94z" />
    <glyph glyph-name="afii10091" unicode="&#xf9;" horiz-adv-x="1593" 
d="M1546 1061q7 39 41 39h21q19 0 23.5 -7.5t4.5 -31.5l-151 -856q-14 -77 -45 -121h119q59 0 59 -43q0 -9 -16 -97l-25 -141q-9 -51 -19.5 -63t-27.5 -12h-19q-29 0 -29 30q0 4 44 242h-1151q-199 0 -199 162q0 28 6 65l148 834q7 39 41 39h20q20 0 24.5 -7.5t4.5 -31.5
l-152 -856q-4 -23 -4 -39q0 -82 107 -82h395l172 977q7 39 45 39h12q22 0 27.5 -8t5.5 -31l-172 -977h393q66 0 100 27t46 94z" />
    <glyph glyph-name="afii10091" unicode="&#x449;" horiz-adv-x="1593" 
d="M1546 1061q7 39 41 39h21q19 0 23.5 -7.5t4.5 -31.5l-151 -856q-14 -77 -45 -121h119q59 0 59 -43q0 -9 -16 -97l-25 -141q-9 -51 -19.5 -63t-27.5 -12h-19q-29 0 -29 30q0 4 44 242h-1151q-199 0 -199 162q0 28 6 65l148 834q7 39 41 39h20q20 0 24.5 -7.5t4.5 -31.5
l-152 -856q-4 -23 -4 -39q0 -82 107 -82h395l172 977q7 39 45 39h12q22 0 27.5 -8t5.5 -31l-172 -977h393q66 0 100 27t46 94z" />
    <glyph glyph-name="afii10092" unicode="&#xfa;" horiz-adv-x="1280" 
d="M367 16l182 1031h-203q-35 0 -35 26q0 13 7 33t40 20h256q30 0 30 -28q0 -4 -73 -414q114 6 222 6q440 0 440 -274q0 -37 -18 -130.5t-77.5 -161.5t-172.5 -103t-297 -35q-99 0 -190 5t-101 9.5t-10 15.5zM559 606l-96 -536q140 -7 219 -7q213 0 312.5 55t124 152
t24.5 146q0 104 -86 150t-279 46q-79 0 -219 -6z" />
    <glyph glyph-name="afii10092" unicode="&#x44a;" horiz-adv-x="1280" 
d="M367 16l182 1031h-203q-35 0 -35 26q0 13 7 33t40 20h256q30 0 30 -28q0 -4 -73 -414q114 6 222 6q440 0 440 -274q0 -37 -18 -130.5t-77.5 -161.5t-172.5 -103t-297 -35q-99 0 -190 5t-101 9.5t-10 15.5zM559 606l-96 -536q140 -7 219 -7q213 0 312.5 55t124 152
t24.5 146q0 104 -86 150t-279 46q-79 0 -219 -6z" />
    <glyph glyph-name="afii10093" unicode="&#xfb;" horiz-adv-x="1407" 
d="M1300 39q-6 -39 -40 -39h-21q-29 0 -29 39l185 1048q7 39 41 39h20q20 0 24.5 -7.5t4.5 -31.5zM145 16l189 1071q8 39 41 39h18q30 0 30 -25q0 -5 -73 -417q113 6 221 6q441 0 441 -260q0 -33 -16 -130.5t-75.5 -169t-173.5 -108t-301 -36.5q-98 0 -189 5t-101.5 9.5
t-10.5 15.5zM338 606l-96 -536q139 -7 219 -7q286 0 373.5 99.5t87.5 267.5q0 99 -86.5 140.5t-278.5 41.5q-79 0 -219 -6z" />
    <glyph glyph-name="afii10093" unicode="&#x44b;" horiz-adv-x="1407" 
d="M1300 39q-6 -39 -40 -39h-21q-29 0 -29 39l185 1048q7 39 41 39h20q20 0 24.5 -7.5t4.5 -31.5zM145 16l189 1071q8 39 41 39h18q30 0 30 -25q0 -5 -73 -417q113 6 221 6q441 0 441 -260q0 -33 -16 -130.5t-75.5 -169t-173.5 -108t-301 -36.5q-98 0 -189 5t-101.5 9.5
t-10.5 15.5zM338 606l-96 -536q139 -7 219 -7q286 0 373.5 99.5t87.5 267.5q0 99 -86.5 140.5t-278.5 41.5q-79 0 -219 -6z" />
    <glyph glyph-name="afii10094" unicode="&#xfc;" horiz-adv-x="1059" 
d="M145 16l189 1071q8 39 41 39h18q30 0 30 -25q0 -5 -73 -417q113 6 221 6q441 0 441 -260q0 -33 -16 -130.5t-75.5 -169t-173.5 -108t-301 -36.5q-98 0 -189 5t-101.5 9.5t-10.5 15.5zM338 606l-96 -536q139 -7 219 -7q286 0 373.5 99.5t87.5 267.5q0 99 -86.5 140.5
t-278.5 41.5q-79 0 -219 -6z" />
    <glyph glyph-name="afii10094" unicode="&#x44c;" horiz-adv-x="1059" 
d="M145 16l189 1071q8 39 41 39h18q30 0 30 -25q0 -5 -73 -417q113 6 221 6q441 0 441 -260q0 -33 -16 -130.5t-75.5 -169t-173.5 -108t-301 -36.5q-98 0 -189 5t-101.5 9.5t-10.5 15.5zM338 606l-96 -536q139 -7 219 -7q286 0 373.5 99.5t87.5 267.5q0 99 -86.5 140.5
t-278.5 41.5q-79 0 -219 -6z" />
    <glyph glyph-name="afii10095" unicode="&#xfd;" horiz-adv-x="895" 
d="M308 526q-33 0 -33 28q0 33 11 44.5t37 11.5h477q16 80 16 152q0 268 -258 268q-98 0 -246 -18q-24 0 -31.5 4.5t-7.5 18.5q0 32 13 43t92.5 21.5t193.5 10.5q171 0 251.5 -94t80.5 -258q0 -109 -48.5 -329.5t-172.5 -330.5t-309 -110q-83 0 -166.5 8.5t-97.5 15.5
t-14 24q0 51 41 51l110 -12q68 -7 141 -7q156 0 254.5 102t142.5 356h-477z" />
    <glyph glyph-name="afii10095" unicode="&#x44d;" horiz-adv-x="895" 
d="M308 526q-33 0 -33 28q0 33 11 44.5t37 11.5h477q16 80 16 152q0 268 -258 268q-98 0 -246 -18q-24 0 -31.5 4.5t-7.5 18.5q0 32 13 43t92.5 21.5t193.5 10.5q171 0 251.5 -94t80.5 -258q0 -109 -48.5 -329.5t-172.5 -330.5t-309 -110q-83 0 -166.5 8.5t-97.5 15.5
t-14 24q0 51 41 51l110 -12q68 -7 141 -7q156 0 254.5 102t142.5 356h-477z" />
    <glyph glyph-name="afii10096" unicode="&#xfe;" horiz-adv-x="1575" 
d="M260 39q-7 -39 -45 -39h-12q-33 0 -33 39l180 1022q8 39 45 39h13q33 0 33 -31q0 -3 -81 -457h365q64 265 185.5 381.5t324.5 116.5q169 0 258.5 -91t89.5 -261q0 -66 -31.5 -249t-91 -292.5t-165 -169t-259.5 -59.5q-344 0 -344 364q0 54 17 170h-365zM1051 68
q159 0 259 89t141.5 298t41.5 301q0 274 -272 274q-159 0 -260 -93.5t-142 -308t-41 -288.5q0 -272 273 -272z" />
    <glyph glyph-name="afii10096" unicode="&#x44e;" horiz-adv-x="1575" 
d="M260 39q-7 -39 -45 -39h-12q-33 0 -33 39l180 1022q8 39 45 39h13q33 0 33 -31q0 -3 -81 -457h365q64 265 185.5 381.5t324.5 116.5q169 0 258.5 -91t89.5 -261q0 -66 -31.5 -249t-91 -292.5t-165 -169t-259.5 -59.5q-344 0 -344 364q0 54 17 170h-365zM1051 68
q159 0 259 89t141.5 298t41.5 301q0 274 -272 274q-159 0 -260 -93.5t-142 -308t-41 -288.5q0 -272 273 -272z" />
    <glyph glyph-name="afii10097" unicode="&#xff;" horiz-adv-x="1104" 
d="M560 508q-205 54 -205 246q0 356 538 356q75 0 142 -3t99 -6.5t36 -7.5t4 -14l-182 -1040q-6 -39 -41 -39h-21q-30 0 -30 28q0 5 84 461q-93 -6 -201 -6q-69 0 -133 6l-306 -402q-47 -63 -58 -75t-40 -12h-14q-29 0 -29 19q0 15 17 37zM998 569l80 455q-153 6 -199 6
q-438 0 -438 -276q0 -99 84.5 -145t271.5 -46q42 0 201 6z" />
    <glyph glyph-name="afii10097" unicode="&#x44f;" horiz-adv-x="1104" 
d="M560 508q-205 54 -205 246q0 356 538 356q75 0 142 -3t99 -6.5t36 -7.5t4 -14l-182 -1040q-6 -39 -41 -39h-21q-30 0 -30 28q0 5 84 461q-93 -6 -201 -6q-69 0 -133 6l-306 -402q-47 -63 -58 -75t-40 -12h-14q-29 0 -29 19q0 15 17 37zM998 569l80 455q-153 6 -199 6
q-438 0 -438 -276q0 -99 84.5 -145t271.5 -46q42 0 201 6z" />
    <glyph glyph-name="Euro" unicode="&#x2c6;" 
d="M1327 1477l-4 -25q-3 -15 -10.5 -20t-20.5 -5h-8h-4q-54 7 -124.5 13t-166.5 6q-85 0 -167.5 -21t-154.5 -76t-128.5 -149.5t-89.5 -241.5h673q14 0 23.5 -5.5t9.5 -16.5q0 -6 -2 -10l-8 -19q-6 -15 -18 -24t-29 -9h-666l-39 -219h608q14 0 24.5 -5.5t10.5 -16.5v-4.5
t-2 -5.5l-8 -19q-6 -15 -18 -24t-29 -9h-600q-5 -29 -6.5 -60.5t-1.5 -57.5q0 -109 31 -182t83.5 -116.5t120.5 -62t142 -18.5q95 0 167 6t129 12h5h8q12 0 17 -3.5t5 -14.5v-6l-4 -25q-3 -15 -17 -24t-28 -11q-21 -2 -43 -5.5t-55 -6.5t-80.5 -5.5t-118.5 -2.5
q-83 0 -164 25t-145 80t-103.5 143.5t-39.5 216.5q0 27 1.5 56.5t6.5 61.5h-90q-31 0 -31 25v8l4 19q3 15 15.5 23.5t29.5 8.5h86l39 219h-90q-31 0 -31 25v8l4 19q3 15 16.5 23.5t30.5 8.5h86q26 116 66.5 204t91 151.5t109 105.5t120.5 67.5t125.5 35.5t124.5 10
q71 0 119 -2.5t81.5 -5.5t56 -6.5t42.5 -6.5q13 -2 23 -9t10 -21v-4z" />
    <glyph glyph-name="endash" unicode="&#x2013;" horiz-adv-x="1004" 
d="M1004 575l-5 -16q-3 -15 -15.5 -24t-29.5 -9h-721q-15 0 -23.5 7.5t-8.5 19.5v6l4 16q3 16 15.5 26.5t29.5 10.5h721q15 0 24 -8t9 -22v-7z" />
    <glyph glyph-name="emdash" unicode="&#x2014;" horiz-adv-x="1331" 
d="M1331 575l-4 -16q-3 -15 -15.5 -24t-29.5 -9h-1049q-15 0 -23.5 7.5t-8.5 19.5v6l4 16q3 16 15.5 26.5t29.5 10.5h1048q16 0 24.5 -8t8.5 -22v-7z" />
    <glyph glyph-name="quoteleft" unicode="&#x2018;" horiz-adv-x="348" 
d="M539 1507q0 -12 -7 -26l-145 -353q-9 -21 -20.5 -29.5t-26.5 -8.5h-39q-20 0 -20 16q0 10 6 22l159 353q10 21 21 30t27 9h30q15 0 15 -13z" />
    <glyph glyph-name="quoteright" unicode="&#x2019;" horiz-adv-x="348" 
d="M549 1505q0 -10 -6 -22l-162 -353q-9 -21 -19.5 -29.5t-25.5 -8.5h-31q-16 0 -16 14q0 5 1.5 11.5t4.5 12.5l147 353q10 21 21 30t26 9h39q21 0 21 -17z" />
    <glyph glyph-name="quotesinglbase" unicode="&#x201a;" horiz-adv-x="348" 
d="M319 201q0 -8 -6 -23l-159 -352q-10 -22 -20 -30.5t-25 -8.5h-31q-17 0 -17 14q0 5 1.5 12t5.5 13l145 352q9 22 21.5 30.5t27.5 8.5h39q18 0 18 -16z" />
    <glyph glyph-name="quotedblleft" unicode="&#x201c;" horiz-adv-x="666" 
d="M821 1507q0 -5 -1.5 -11.5t-4.5 -12.5l-147 -353q-10 -21 -21 -29.5t-26 -8.5h-39q-21 0 -21 16q0 10 6 22l162 353q9 21 19.5 30t25.5 9h31q16 0 16 -15zM565 1507q0 -5 -1.5 -11.5t-4.5 -12.5l-147 -353q-10 -21 -21 -29.5t-26 -8.5h-39q-21 0 -21 16q0 10 6 22
l162 353q9 21 19.5 30t25.5 9h31q16 0 16 -15z" />
    <glyph glyph-name="quotedblright" unicode="&#x201d;" horiz-adv-x="666" 
d="M821 1505q0 -10 -6 -22l-162 -353q-9 -21 -19 -29.5t-26 -8.5h-30q-17 0 -17 14q0 5 1.5 11.5t4.5 12.5l148 353q9 21 20 30t27 9h39q20 0 20 -17zM565 1505q0 -10 -6 -22l-162 -353q-9 -21 -19 -29.5t-26 -8.5h-30q-17 0 -17 14q0 5 1.5 11.5t4.5 12.5l148 353
q9 21 20 30t27 9h39q20 0 20 -17z" />
    <glyph glyph-name="quotedblbase" unicode="&#x201e;" horiz-adv-x="666" 
d="M551 201q0 -8 -6 -23l-160 -352q-9 -22 -19.5 -30.5t-25.5 -8.5h-31q-16 0 -16 14q0 5 1.5 12t4.5 13l145 352q10 22 22 30.5t28 8.5h38q19 0 19 -16zM295 201q0 -8 -6 -23l-160 -352q-9 -22 -19.5 -30.5t-25.5 -8.5h-31q-16 0 -16 14q0 5 1.5 12t4.5 13l145 352
q10 22 22 30.5t28 8.5h38q19 0 19 -16z" />
    <glyph glyph-name="dagger" unicode="&#x2020;" horiz-adv-x="778" 
d="M885 1069l-4 -20q-3 -16 -15.5 -24.5t-29.5 -8.5h-244l-174 -987q-3 -17 -12.5 -29t-26.5 -12h-25q-14 0 -20 8t-6 22v11l174 987h-203q-15 0 -24 7t-9 19v7l4 20q3 16 15.5 23.5t29.5 7.5h203l68 383q3 15 13.5 27t27.5 12h22q14 0 20.5 -9.5t6.5 -21.5v-8l-68 -383h244
q15 0 24 -6t9 -19v-6z" />
    <glyph glyph-name="daggerdbl" unicode="&#x2021;" horiz-adv-x="778" 
d="M885 1069l-4 -20q-3 -16 -15.5 -24.5t-29.5 -8.5h-244l-60 -346h244q33 0 33 -25v-6l-4 -21q-3 -15 -15.5 -23.5t-29.5 -8.5h-244l-98 -557q-3 -17 -12.5 -29t-26.5 -12h-25q-14 0 -20 8t-6 22v11l98 557h-203q-15 0 -24 7t-9 19v6l5 21q3 15 15.5 23t29.5 8h202l60 346
h-203q-15 0 -24 7t-9 19v7l4 20q3 16 15.5 23.5t29.5 7.5h203l74 420q3 15 13.5 27t27.5 12h22q14 0 20.5 -9.5t6.5 -21.5v-8l-74 -420h244q15 0 24 -6t9 -19v-6z" />
    <glyph glyph-name="bullet" unicode="&#x2022;" horiz-adv-x="856" 
d="M891 752q0 -65 -25 -122.5t-67.5 -100.5t-100 -68t-123.5 -25q-65 0 -122.5 25t-100.5 68t-67.5 100.5t-24.5 122.5t24.5 122.5t67.5 100t100.5 67.5t122.5 25q66 0 123.5 -25t100 -67.5t67.5 -100t25 -122.5z" />
    <glyph glyph-name="ellipsis" unicode="&#x2026;" horiz-adv-x="1040" 
d="M944 178l-26 -151q-4 -17 -17 -28t-29 -11h-12q-14 0 -23.5 8.5t-9.5 23.5v7l27 151q3 16 17.5 27.5t29.5 11.5h12q14 0 22.5 -9.5t8.5 -23.5v-6zM596 178l-27 -151q-3 -17 -16 -28t-29 -11h-12q-14 0 -23.5 8.5t-9.5 23.5v7l27 151q3 16 17 27.5t30 11.5h12
q14 0 22.5 -9.5t8.5 -23.5v-6zM248 178l-27 -151q-3 -17 -16 -28t-29 -11h-12q-14 0 -23.5 8.5t-9.5 23.5v7l27 151q3 16 17 27.5t30 11.5h12q14 0 22.5 -9.5t8.5 -23.5v-6z" />
    <glyph glyph-name="perthousand" unicode="&#x2030;" horiz-adv-x="2226" 
d="M2204 608q0 -21 -2 -43t-7 -47l-38 -213q-15 -85 -43 -145.5t-68 -99t-91 -56.5t-112 -18q-102 0 -157.5 60t-55.5 169q0 22 1.5 43.5t6.5 46.5l39 213q15 86 44 146.5t69.5 98.5t91.5 55.5t111 17.5q97 0 154 -57.5t57 -170.5zM864 1305q0 -22 -1.5 -44t-6.5 -47
l-39 -213q-15 -85 -43 -145.5t-67.5 -99t-90.5 -56.5t-112 -18q-102 0 -157.5 60t-55.5 169q0 22 1.5 44t6.5 46l39 213q15 86 44 146.5t69.5 98.5t91 55.5t110.5 17.5q97 0 154 -57.5t57 -169.5zM1530 1513q0 -8 -17 -30l-1110 -1456q-17 -22 -25 -30.5t-24 -8.5h-63
q-12 0 -12 8q0 7 16 31l1110 1456q17 21 25.5 30t23.5 9h62q14 0 14 -9zM1528 608q0 -21 -1.5 -43t-6.5 -47l-39 -213q-15 -85 -43 -145.5t-68 -99t-91 -56.5t-112 -18q-102 0 -157.5 60t-55.5 169q0 22 2 43.5t7 46.5l38 213q15 86 44 146.5t69.5 98.5t91.5 55.5t111 17.5
q97 0 154 -57.5t57 -170.5zM2124 604q0 82 -38 118t-108 36q-81 0 -139.5 -58.5t-81.5 -181.5l-39 -213q-5 -25 -6.5 -46t-1.5 -40q0 -83 39 -118t109 -35q85 0 140.5 57.5t78.5 181.5l39 213q5 25 6.5 46.5t1.5 39.5zM784 1300q0 82 -38 118t-107 36q-82 0 -140 -58.5
t-81 -181.5l-39 -213q-5 -24 -6.5 -45.5t-1.5 -40.5q0 -83 39 -118t108 -35q85 0 140.5 58t78.5 181l39 213q5 25 6.5 46.5t1.5 39.5zM1448 604q0 82 -38 118t-107 36q-82 0 -140.5 -58.5t-81.5 -181.5l-39 -213q-5 -25 -6.5 -46t-1.5 -40q0 -83 39.5 -118t108.5 -35
q85 0 140.5 57.5t78.5 181.5l39 213q5 25 6.5 46.5t1.5 39.5z" />
    <glyph glyph-name="guilsinglleft" unicode="&#x2039;" horiz-adv-x="625" 
d="M680 915q0 -11 -7 -23t-18 -20l-422 -331l306 -332q10 -13 10 -21q0 -11 -14 -22l-17 -14q-13 -11 -22 -11q-8 0 -15.5 5.5t-13.5 11.5l-307 334q-19 20 -19 45q0 18 10.5 38t30.5 35l422 334q9 6 17.5 10t17.5 4q12 0 20 -8l17 -20q4 -4 4 -15z" />
    <glyph glyph-name="guilsinglright" unicode="&#x203a;" horiz-adv-x="625" 
d="M678 565q0 -18 -10.5 -38t-30.5 -35l-422 -334q-9 -6 -17 -10.5t-18 -4.5q-12 0 -20 9l-17 20q-4 4 -4 14q0 11 7 23t18 20l422 332l-305 332q-11 9 -11 20q0 12 15 23l16 14q6 5 12 8t11 3q8 0 15 -5.5t13 -11.5l307 -334q19 -20 19 -45z" />
    <glyph glyph-name="trademark" unicode="&#x2122;" horiz-adv-x="1569" 
d="M1661 705q0 -21 -21 -21h-36q-19 0 -19 21v522q0 68 -7.5 112t-34.5 69t-79 34.5t-141 9.5v-747q0 -8 -4.5 -14.5t-13.5 -6.5h-39q-10 0 -15.5 6.5t-5.5 14.5v747q-80 0 -146 -5t-116 -11v-731q0 -8 -4.5 -14.5t-13.5 -6.5h-37q-21 0 -21 21v778q0 11 5 14.5t12 5.5
q31 4 72.5 8t89.5 7.5t99 5.5t101 2q99 0 170 -9t116.5 -40t67 -90.5t21.5 -159.5v-522zM827 1477q0 -17 -12 -24t-24 -7h-220v-727q0 -13 -9.5 -24t-24.5 -11h-13q-15 0 -23.5 11t-8.5 24v727h-222q-12 0 -23 7t-11 24v10q0 15 10 24t24 9h521q14 0 25 -9t11 -24v-10z" />
    <glyph glyph-name="NULL" horiz-adv-x="0" 
 />
    </font>
</defs>
</svg>
